<svg width="375" height="300" viewBox="0 0 375 300" fill="none" xmlns="http://www.w3.org/2000/svg">
<mask id="mask0_8080_553" style="mask-type:alpha" maskUnits="userSpaceOnUse" x="0" y="0" width="375" height="300">
<rect width="375" height="300" fill="#D9D9D9"/>
</mask>
<g mask="url(#mask0_8080_553)">
<rect x="71" y="97" width="577" height="203" rx="101.5" fill="#5267DF"/>
<g filter="url(#filter0_d_8080_553)">
<rect x="33.1157" y="45.756" width="310.769" height="206.488" rx="14" fill="#777777"/>
</g>
<rect x="34.1909" y="46.8287" width="308.742" height="204.806" rx="13" fill="url(#paint0_linear_8080_553)"/>
<rect opacity="0.1" x="62.1655" y="54.4998" width="253.488" height="189.731" rx="5" fill="#2A2A2A"/>
<rect x="44.4229" y="56.1088" width="288.187" height="185.571" rx="8" fill="#E8EAF6"/>
<mask id="mask1_8080_553" style="mask-type:luminance" maskUnits="userSpaceOnUse" x="44" y="56" width="289" height="186">
<rect x="44.4229" y="56.1088" width="288.187" height="185.571" rx="8" fill="white"/>
</mask>
<g mask="url(#mask1_8080_553)">
<rect x="42.5249" y="56.2145" width="294.101" height="31.6436" fill="#5267DF"/>
<ellipse opacity="0.244768" cx="65.1065" cy="72.3045" rx="8.6026" ry="8.58132" fill="white"/>
<ellipse opacity="0.104399" cx="312.969" cy="72.3045" rx="8.6026" ry="8.58132" fill="white"/>
<rect opacity="0.75" x="81.7739" y="66.9412" width="64.5195" height="3.21799" rx="1.609" fill="white"/>
<rect opacity="0.25" x="81.7739" y="74.4498" width="34.4104" height="3.21799" rx="1.609" fill="white"/>
<rect x="75.0698" y="105.988" width="140.33" height="169.481" rx="8" fill="white"/>
<rect x="233.68" y="105.988" width="68.8208" height="169.481" rx="8" fill="white"/>
<rect opacity="0.5" x="117.26" y="126.474" width="64.5195" height="3.21799" rx="1.609" fill="#242A45"/>
</g>
<ellipse cx="100.602" cy="130.929" rx="8.60215" ry="8.57143" fill="#F98E5D"/>
<rect opacity="0.25" x="244.688" y="117" width="47.3118" height="3.21429" rx="1.60714" fill="#242A45"/>
<rect opacity="0.25" x="244.688" y="127.714" width="47.3118" height="3.21429" rx="1.60714" fill="#242A45"/>
<rect opacity="0.25" x="244.688" y="138.429" width="47.3118" height="3.21429" rx="1.60714" fill="#242A45"/>
<rect opacity="0.25" x="244.688" y="149.143" width="47.3118" height="3.21429" rx="1.60714" fill="#242A45"/>
<rect opacity="0.25" x="244.688" y="167.357" width="47.3118" height="3.21429" rx="1.60714" fill="#242A45"/>
<rect opacity="0.25" x="244.688" y="178.071" width="47.3118" height="3.21429" rx="1.60714" fill="#242A45"/>
<rect opacity="0.25" x="244.688" y="188.786" width="47.3118" height="3.21429" rx="1.60714" fill="#242A45"/>
<rect opacity="0.25" x="117.269" y="133.071" width="34.4086" height="3.21429" rx="1.60714" fill="#242A45"/>
<ellipse cx="100.623" cy="161.5" rx="8.62275" ry="8.5" fill="#6AC6D6"/>
<rect opacity="0.5" x="117.329" y="156.188" width="64.6707" height="3.1875" rx="1.59375" fill="#242A45"/>
<rect opacity="0.25" x="117.329" y="163.625" width="34.491" height="3.1875" rx="1.59375" fill="#242A45"/>
<ellipse cx="100.623" cy="191.5" rx="8.62275" ry="8.5" fill="#A47ED4"/>
<rect opacity="0.5" x="117.329" y="186.188" width="64.6707" height="3.1875" rx="1.59375" fill="#242A45"/>
<rect opacity="0.25" x="117.329" y="193.625" width="34.491" height="3.1875" rx="1.59375" fill="#242A45"/>
<ellipse cx="100.623" cy="221.5" rx="8.62275" ry="8.5" fill="#EC7878"/>
<rect opacity="0.5" x="117.329" y="216.188" width="64.6707" height="3.1875" rx="1.59375" fill="#242A45"/>
<rect opacity="0.25" x="117.329" y="223.625" width="34.491" height="3.1875" rx="1.59375" fill="#242A45"/>
</g>
<defs>
<filter id="filter0_d_8080_553" x="-6.88428" y="35.756" width="390.769" height="286.488" filterUnits="userSpaceOnUse" color-interpolation-filters="sRGB">
<feFlood flood-opacity="0" result="BackgroundImageFix"/>
<feColorMatrix in="SourceAlpha" type="matrix" values="0 0 0 0 0 0 0 0 0 0 0 0 0 0 0 0 0 0 127 0" result="hardAlpha"/>
<feOffset dy="30"/>
<feGaussianBlur stdDeviation="20"/>
<feColorMatrix type="matrix" values="0 0 0 0 0.182433 0 0 0 0 0.230633 0 0 0 0 0.506058 0 0 0 0.05 0"/>
<feBlend mode="normal" in2="BackgroundImageFix" result="effect1_dropShadow_8080_553"/>
<feBlend mode="normal" in="SourceGraphic" in2="effect1_dropShadow_8080_553" result="shape"/>
</filter>
<linearGradient id="paint0_linear_8080_553" x1="488.807" y1="150.827" x2="306.781" y2="-123.574" gradientUnits="userSpaceOnUse">
<stop stop-color="#151515"/>
<stop offset="1" stop-color="#3D3D3D"/>
</linearGradient>
</defs>
</svg>
