<svg width="375" height="282" viewBox="0 0 375 282" fill="none" xmlns="http://www.w3.org/2000/svg">
<mask id="mask0_8073_2284" style="mask-type:alpha" maskUnits="userSpaceOnUse" x="0" y="0" width="375" height="282">
<rect width="375" height="282" fill="#D9D9D9"/>
</mask>
<g mask="url(#mask0_8073_2284)">
<rect x="-269" y="79" width="577" height="203" rx="101.5" fill="#5267DF"/>
<ellipse cx="92.2903" cy="127.043" rx="9.29032" ry="9.25714" fill="#F98E5D"/>
<rect opacity="0.25" x="247.903" y="112" width="51.0968" height="3.47143" rx="1.73571" fill="#242A45"/>
<rect opacity="0.25" x="247.903" y="123.571" width="51.0968" height="3.47143" rx="1.73571" fill="#242A45"/>
<rect opacity="0.25" x="247.903" y="135.143" width="51.0968" height="3.47143" rx="1.73571" fill="#242A45"/>
<rect opacity="0.25" x="247.903" y="146.714" width="51.0968" height="3.47143" rx="1.73571" fill="#242A45"/>
<rect opacity="0.25" x="247.903" y="166.386" width="51.0968" height="3.47143" rx="1.73571" fill="#242A45"/>
<rect opacity="0.25" x="247.903" y="177.957" width="51.0968" height="3.47143" rx="1.73571" fill="#242A45"/>
<rect opacity="0.25" x="247.903" y="189.529" width="51.0968" height="3.47143" rx="1.73571" fill="#242A45"/>
<rect opacity="0.25" x="110.29" y="129.357" width="37.1613" height="3.47143" rx="1.73571" fill="#242A45"/>
<ellipse cx="92.2934" cy="159.5" rx="9.29341" ry="9.5" fill="#6AC6D6"/>
<rect opacity="0.5" x="110.3" y="153.562" width="69.7006" height="3.5625" rx="1.78125" fill="#242A45"/>
<rect opacity="0.25" x="110.3" y="161.875" width="37.1737" height="3.5625" rx="1.78125" fill="#242A45"/>
<ellipse cx="92.2934" cy="192.5" rx="9.29341" ry="9.5" fill="#A47ED4"/>
<rect opacity="0.5" x="110.3" y="186.562" width="69.7006" height="3.5625" rx="1.78125" fill="#242A45"/>
<rect opacity="0.25" x="110.3" y="194.875" width="37.1737" height="3.5625" rx="1.78125" fill="#242A45"/>
<ellipse cx="92.2934" cy="224.5" rx="9.29341" ry="9.5" fill="#EC7878"/>
<rect opacity="0.5" x="110.3" y="218.562" width="69.7006" height="3.5625" rx="1.78125" fill="#242A45"/>
<rect opacity="0.25" x="110.3" y="226.875" width="37.1737" height="3.5625" rx="1.78125" fill="#242A45"/>
<rect x="52" y="31" width="203.053" height="200.733" rx="8" fill="#E8EAF6"/>
<mask id="mask1_8073_2284" style="mask-type:luminance" maskUnits="userSpaceOnUse" x="52" y="31" width="204" height="201">
<rect x="52" y="31" width="203.053" height="200.733" rx="8" fill="white"/>
</mask>
<g mask="url(#mask1_8073_2284)">
<rect x="49.9521" y="31.1143" width="317.344" height="34.229" fill="#242A45"/>
<circle opacity="0.244768" cx="74.3176" cy="48.5189" r="9.28244" fill="white"/>
<rect opacity="0.75" x="92.3027" y="42.7173" width="69.6183" height="3.48092" rx="1.74046" fill="white"/>
<rect opacity="0.25" x="92.3027" y="50.8395" width="37.1298" height="3.48092" rx="1.74046" fill="white"/>
</g>
<g filter="url(#filter0_d_8073_2284)">
<rect x="67.6631" y="111.061" width="116.031" height="147.939" rx="8" fill="white"/>
</g>
<rect opacity="0.5" x="107.51" y="131.366" width="58.7795" height="3.48092" rx="1.74046" fill="#242A45"/>
<circle cx="90.2883" cy="137.168" r="9.28244" fill="#5267DF"/>
<rect opacity="0.25" x="107.51" y="139.488" width="31.3491" height="3.48092" rx="1.74046" fill="#242A45"/>
<circle cx="90.2883" cy="169.656" r="9.28244" fill="#5267DF"/>
<rect opacity="0.5" x="107.509" y="163.855" width="58.7795" height="3.48092" rx="1.74046" fill="#242A45"/>
<rect opacity="0.25" x="107.509" y="171.977" width="31.3491" height="3.48092" rx="1.74046" fill="#242A45"/>
<circle cx="90.2883" cy="202.145" r="9.28244" fill="#5267DF"/>
<rect opacity="0.5" x="107.509" y="196.344" width="58.7795" height="3.48092" rx="1.74046" fill="#242A45"/>
<rect opacity="0.25" x="107.509" y="204.466" width="31.3491" height="3.48092" rx="1.74046" fill="#242A45"/>
<circle cx="90.2883" cy="234.634" r="9.28244" fill="#5267DF"/>
<rect opacity="0.5" x="107.509" y="228.832" width="58.7795" height="3.48092" rx="1.74046" fill="#242A45"/>
<rect opacity="0.25" x="107.509" y="236.954" width="31.3491" height="3.48092" rx="1.74046" fill="#242A45"/>
<g filter="url(#filter1_d_8073_2284)">
<g filter="url(#filter2_d_8073_2284)">
<rect x="197.618" y="111.061" width="116.031" height="147.939" rx="8" fill="white"/>
</g>
<rect opacity="0.5" x="237.465" y="131.366" width="58.7795" height="3.48092" rx="1.74046" fill="#242A45"/>
<circle cx="220.244" cy="137.168" r="9.28244" fill="#5267DF"/>
<rect opacity="0.25" x="237.465" y="139.488" width="31.3491" height="3.48092" rx="1.74046" fill="#242A45"/>
<circle cx="220.244" cy="169.657" r="9.28244" fill="#FA5959"/>
<rect opacity="0.5" x="237.465" y="163.855" width="58.7795" height="3.48092" rx="1.74046" fill="#242A45"/>
<rect opacity="0.25" x="237.465" y="171.977" width="31.3491" height="3.48092" rx="1.74046" fill="#242A45"/>
<circle cx="220.244" cy="202.145" r="9.28244" fill="#5267DF"/>
<rect opacity="0.5" x="237.465" y="196.344" width="58.7795" height="3.48092" rx="1.74046" fill="#242A45"/>
<rect opacity="0.25" x="237.465" y="204.466" width="31.3491" height="3.48092" rx="1.74046" fill="#242A45"/>
<circle cx="220.244" cy="234.634" r="9.28244" fill="#5267DF"/>
<rect opacity="0.5" x="237.465" y="228.832" width="58.7795" height="3.48092" rx="1.74046" fill="#242A45"/>
<rect opacity="0.25" x="237.465" y="236.954" width="31.3491" height="3.48092" rx="1.74046" fill="#242A45"/>
</g>
<rect x="67.6641" y="80.313" width="137.496" height="19.7252" rx="8" fill="white"/>
<circle cx="267.818" cy="129.046" r="38.8702" fill="#495DCF" fill-opacity="0.20012" stroke="#5267DF" stroke-width="10"/>
<path d="M295.085 156.893L323.512 185.321" stroke="#5267DF" stroke-width="10" stroke-linecap="round" stroke-linejoin="round"/>
</g>
<defs>
<filter id="filter0_d_8073_2284" x="57.6631" y="106.061" width="136.03" height="167.939" filterUnits="userSpaceOnUse" color-interpolation-filters="sRGB">
<feFlood flood-opacity="0" result="BackgroundImageFix"/>
<feColorMatrix in="SourceAlpha" type="matrix" values="0 0 0 0 0 0 0 0 0 0 0 0 0 0 0 0 0 0 127 0" result="hardAlpha"/>
<feOffset dy="5"/>
<feGaussianBlur stdDeviation="5"/>
<feColorMatrix type="matrix" values="0 0 0 0 0.285333 0 0 0 0 0.363695 0 0 0 0 0.811481 0 0 0 0.0830693 0"/>
<feBlend mode="normal" in2="BackgroundImageFix" result="effect1_dropShadow_8073_2284"/>
<feBlend mode="normal" in="SourceGraphic" in2="effect1_dropShadow_8073_2284" result="shape"/>
</filter>
<filter id="filter1_d_8073_2284" x="187.618" y="106.061" width="136.03" height="167.939" filterUnits="userSpaceOnUse" color-interpolation-filters="sRGB">
<feFlood flood-opacity="0" result="BackgroundImageFix"/>
<feColorMatrix in="SourceAlpha" type="matrix" values="0 0 0 0 0 0 0 0 0 0 0 0 0 0 0 0 0 0 127 0" result="hardAlpha"/>
<feOffset dy="5"/>
<feGaussianBlur stdDeviation="5"/>
<feColorMatrix type="matrix" values="0 0 0 0 0.285333 0 0 0 0 0.363695 0 0 0 0 0.811481 0 0 0 0.0830693 0"/>
<feBlend mode="normal" in2="BackgroundImageFix" result="effect1_dropShadow_8073_2284"/>
<feBlend mode="normal" in="SourceGraphic" in2="effect1_dropShadow_8073_2284" result="shape"/>
</filter>
<filter id="filter2_d_8073_2284" x="187.618" y="106.061" width="136.03" height="167.939" filterUnits="userSpaceOnUse" color-interpolation-filters="sRGB">
<feFlood flood-opacity="0" result="BackgroundImageFix"/>
<feColorMatrix in="SourceAlpha" type="matrix" values="0 0 0 0 0 0 0 0 0 0 0 0 0 0 0 0 0 0 127 0" result="hardAlpha"/>
<feOffset dy="5"/>
<feGaussianBlur stdDeviation="5"/>
<feColorMatrix type="matrix" values="0 0 0 0 0.285333 0 0 0 0 0.363695 0 0 0 0 0.811481 0 0 0 0.0830693 0"/>
<feBlend mode="normal" in2="BackgroundImageFix" result="effect1_dropShadow_8073_2284"/>
<feBlend mode="normal" in="SourceGraphic" in2="effect1_dropShadow_8073_2284" result="shape"/>
</filter>
</defs>
</svg>
