<svg width="768" height="478" viewBox="0 0 768 478" fill="none" xmlns="http://www.w3.org/2000/svg">
<mask id="mask0_8067_2811" style="mask-type:alpha" maskUnits="userSpaceOnUse" x="0" y="0" width="768" height="478">
<rect width="768" height="478" fill="#D9D9D9"/>
</mask>
<g mask="url(#mask0_8067_2811)">
<rect width="1000" height="352" rx="176" transform="matrix(-1 0 0 1 521 126)" fill="#5267DF"/>
<rect x="175" y="67" width="350" height="346" rx="8" fill="#E8EAF6"/>
<mask id="mask1_8067_2811" style="mask-type:luminance" maskUnits="userSpaceOnUse" x="175" y="67" width="350" height="346">
<rect x="175" y="67" width="350" height="346" rx="8" fill="white"/>
</mask>
<g mask="url(#mask1_8067_2811)">
<rect x="171.47" y="67.1971" width="547" height="59" fill="#242A45"/>
<circle opacity="0.244768" cx="213.47" cy="97.1971" r="16" fill="white"/>
<rect opacity="0.75" x="244.47" y="87.1971" width="120" height="6" rx="3" fill="white"/>
<rect opacity="0.25" x="244.47" y="101.197" width="64" height="6" rx="3" fill="white"/>
</g>
<rect x="202" y="152" width="237" height="34" rx="8" fill="white"/>
<rect x="202" y="200" width="237" height="34" rx="8" fill="white"/>
<rect x="202" y="248" width="237" height="34" rx="8" fill="white"/>
<rect x="202" y="296" width="237" height="34" rx="8" fill="white"/>
<rect x="202" y="344" width="237" height="34" rx="8" fill="white"/>
<mask id="mask2_8067_2811" style="mask-type:luminance" maskUnits="userSpaceOnUse" x="265" y="150" width="350" height="296">
<path fill-rule="evenodd" clip-rule="evenodd" d="M615 150.048H265.219V446H615V150.048Z" fill="white"/>
</mask>
<g mask="url(#mask2_8067_2811)">
<path fill-rule="evenodd" clip-rule="evenodd" d="M266.293 400.34C266.963 402.358 268.008 404.338 269.467 406.275C294.669 439.749 388.843 450.908 481.691 444.089C530.167 440.527 564.361 419.563 585.972 400.34C591.135 395.746 595.582 391.252 599.332 387.117C604.001 381.972 607.645 376.257 610.242 370.222C617.888 352.444 616.416 331.906 605.119 315.061C595.542 300.785 582.397 290.237 575.606 278.518C562.674 256.201 631.043 199.782 586.552 164.138C570.848 151.554 537.393 148.65 500.89 150.602C456.462 152.98 407.525 162.557 380.606 170.647C324.894 187.384 290.026 211.628 282.067 238.903C274.109 266.179 295.378 278.521 313.947 304.557C331.442 329.083 255.394 367.554 266.293 400.34Z" fill="#3A499E"/>
</g>
<path fill-rule="evenodd" clip-rule="evenodd" d="M360.451 240.872L377.436 238L380 253.799L359 260L360.451 240.872Z" fill="#306299"/>
<path fill-rule="evenodd" clip-rule="evenodd" d="M378 239.118C378 239.118 391.176 238.771 405 233L398.504 245.254L379.751 251L378 239.118Z" fill="#FA9E89"/>
<mask id="mask3_8067_2811" style="mask-type:luminance" maskUnits="userSpaceOnUse" x="455" y="152" width="158" height="220">
<path fill-rule="evenodd" clip-rule="evenodd" d="M613 152.048H455.175V371.892H613V152.048Z" fill="white"/>
</mask>
<g mask="url(#mask3_8067_2811)">
<path opacity="0.152134" fill-rule="evenodd" clip-rule="evenodd" d="M455.933 204.186C464.045 244.345 601.94 305.876 608.571 371.892C615.689 354.14 614.318 333.634 603.802 316.814C594.887 302.559 582.651 292.027 576.329 280.325C564.291 258.043 627.934 201.707 586.519 166.117C571.9 153.552 540.758 150.652 506.779 152.602C496.435 154.966 448.615 167.933 455.933 204.186Z" fill="white"/>
</g>
<path opacity="0.149089" fill-rule="evenodd" clip-rule="evenodd" d="M263.179 393C262.195 400.866 265.521 406.336 266.819 408.227C289.249 440.899 411.314 451.79 493.951 445.135C537.096 441.659 572.455 419.42 594 394.916L263.179 393Z" fill="black"/>
<path opacity="0.128046" fill-rule="evenodd" clip-rule="evenodd" d="M541.373 396.812C541.373 396.812 551.45 397.422 551.295 400.472C551.14 403.521 544.784 410.231 544.784 410.231L554.293 406.825L583 405.732L579.899 408.401C579.899 408.401 556.773 409.468 555.74 410.281C554.706 411.094 541.476 421.057 539.203 421.463C536.929 421.87 392.515 421.688 392.515 421.688C392.515 421.688 377.657 422.277 375.176 417.702C372.696 413.128 363.704 413.433 361.223 417.397C358.743 421.362 359.087 436 359.087 436C359.087 436 352.294 434.227 351.921 434.069C328.356 424.106 302 393 302 393L541.373 396.812Z" fill="black"/>
<path fill-rule="evenodd" clip-rule="evenodd" d="M572 357.695L557.549 406.858C557.549 406.858 555.494 409.303 554 407.038L563.714 357L572 357.695Z" fill="#162F44"/>
<path fill-rule="evenodd" clip-rule="evenodd" d="M591.866 356L599 389.138L595.603 393L586 356.954L591.866 356Z" fill="#162F44"/>
<path fill-rule="evenodd" clip-rule="evenodd" d="M379.507 367.082L373.482 401.282L372.483 406.951L374.675 407.273L374.831 407.297L379.619 408C379.619 408 395.59 368.656 396.949 359.213C398.309 349.77 371.804 312 371.804 312L343.036 314.448C342.275 322.667 353.78 338.16 364.063 350.218C372.164 359.717 379.507 367.082 379.507 367.082Z" fill="#F4F2F9"/>
<path fill-rule="evenodd" clip-rule="evenodd" d="M379.119 365.535L372.243 405.302L374.389 405.623L374.462 406C374.462 406 374.489 405.878 374.542 405.648C375.417 401.818 385.682 367.911 385.994 361C386.327 353.674 371.967 331 371.967 331L364 348.714C371.931 358.188 379.119 365.535 379.119 365.535Z" fill="#E0DFEA"/>
<path fill-rule="evenodd" clip-rule="evenodd" d="M341 316L369.667 313.614L371 265.886C371 265.886 364 241 356.333 241C351.78 241 347.347 242.804 344.634 247.195C342.78 250.198 341.73 254.415 342 260.091C342.61 272.868 341.27 308.998 341.033 315.113C341.014 315.69 341 316 341 316Z" fill="#6397D9"/>
<path fill-rule="evenodd" clip-rule="evenodd" d="M348.885 312.276L348.347 255.458L355 241.937L347.237 241L344.508 244.211C342.719 247.213 341.705 251.429 341.966 257.104C342.555 269.878 341.229 306.886 341 313L348.885 312.276Z" fill="#8BBFF7"/>
<path fill-rule="evenodd" clip-rule="evenodd" d="M349 257L370.017 297L370.563 279.009L371 264.411L353.476 257H349Z" fill="#306299"/>
<path fill-rule="evenodd" clip-rule="evenodd" d="M402.671 420H531.329C536.118 420 540 416.092 540 411.27V190.73C540 185.908 536.118 182 531.329 182H402.671C397.882 182 394 185.908 394 190.73V411.27C394 416.092 397.882 420 402.671 420Z" fill="white"/>
<path fill-rule="evenodd" clip-rule="evenodd" d="M402 213.29V301.71C402 303.528 403.456 305 405.253 305H528.747C530.544 305 532 303.528 532 301.71V213.29C532 211.472 530.544 210 528.747 210H405.253C403.456 210 402 211.472 402 213.29Z" fill="#E4DCF1"/>
<path fill-rule="evenodd" clip-rule="evenodd" d="M466.147 234L467.699 235.184L471 249.554L470.929 251.921L465.702 252C465.347 252.005 464.989 251.935 464.671 251.749C463.177 250.872 462.539 248.425 463.364 246.257C463.808 245.091 464.945 243.028 465.077 242.115C465.391 239.931 466.147 234 466.147 234Z" fill="#8E2B43"/>
<path fill-rule="evenodd" clip-rule="evenodd" d="M439 308L493.224 307.793L495.019 307.786C495.019 307.786 501.506 277.137 491.003 265.325C488.445 262.452 485.12 260.332 481.497 258.956C470.224 254.658 456.044 257.5 453.004 266.921C448.988 279.372 439 308 439 308Z" fill="#4EC9B4"/>
<path fill-rule="evenodd" clip-rule="evenodd" d="M481.16 259.489C481.16 259.489 478.945 265.515 474.057 266.783C469.169 268.052 463.568 263.559 464.026 258.326C464.026 258.326 468.711 257.639 469.474 255.366C470.402 252.605 469.78 252.512 469.78 252.512C469.78 252.512 467.947 249.023 467.336 246.486C466.725 243.949 467.641 234.117 471.918 233.166C474.623 232.564 478.945 233.483 482 237.923C482 237.923 480.472 246.486 478.334 250.609C476.195 254.732 475.126 256.635 481.16 259.489Z" fill="#FA9E89"/>
<path opacity="0.184408" fill-rule="evenodd" clip-rule="evenodd" d="M405.167 183.013L538 369.239V411.483C538 416.187 534.301 420 529.737 420H409.573C404.286 420 400 415.582 400 410.131V186.827C400 183.898 402.33 182.871 405.167 183.013Z" fill="#F4F2F9"/>
<path fill-rule="evenodd" clip-rule="evenodd" d="M445 289.442L438.018 259L427 260.816L437.684 305L445 289.442Z" fill="#4EC9B4"/>
<path fill-rule="evenodd" clip-rule="evenodd" d="M435.8 258.137L435.2 255.031C435.2 255.031 437 253.847 436.7 252.072C436.4 250.297 437 246.156 437 246.156C437 246.156 436.043 245.508 435.425 246.673C434.984 247.502 434.3 249.41 434.3 249.41C434.3 249.41 432.004 243.244 431.474 241.619C431.249 240.929 431.022 239.853 430.499 240.017C430.224 240.103 430.324 240.732 430.371 241.347C430.511 243.191 431.299 246.131 431.299 246.131L430.899 246.365L429.236 241.089C429.163 240.833 429.043 240.445 428.774 240.424C428.536 240.405 428.299 240.535 428.299 241.126C428.299 242.31 429.574 247.203 429.574 247.203L429.255 247.422L427.32 243.144C427.187 242.821 426.707 242.85 426.625 243.188C426.56 243.456 426.579 243.839 426.798 244.38C427.398 245.86 427.999 248.226 427.999 248.226L427.848 248.399L426.798 246.229C426.61 245.882 426.149 245.659 426.015 246.029C425.827 246.547 427.473 251 427.473 251.296C427.473 251.592 428.599 255.622 429.799 255.918C430.999 256.214 431.074 259 431.074 259L435.8 258.137Z" fill="#FA9E89"/>
<path fill-rule="evenodd" clip-rule="evenodd" d="M505.351 331H527.649C528.947 331 530 329.928 530 328.606V325.394C530 324.072 528.947 323 527.649 323H505.351C504.053 323 503 324.072 503 325.394V328.606C503 329.928 504.053 331 505.351 331Z" fill="#FFDEDD"/>
<path fill-rule="evenodd" clip-rule="evenodd" d="M473.351 331H495.649C496.947 331 498 329.928 498 328.606V325.394C498 324.072 496.947 323 495.649 323H473.351C472.053 323 471 324.072 471 325.394V328.606C471 329.928 472.053 331 473.351 331Z" fill="#FFDEDD"/>
<path fill-rule="evenodd" clip-rule="evenodd" d="M439.352 331H461.649C462.947 331 464 329.928 464 328.606V325.394C464 324.072 462.947 323 461.649 323H439.352C438.053 323 437 324.072 437 325.394V328.606C437 329.928 438.053 331 439.352 331Z" fill="#FFDEDD"/>
<path fill-rule="evenodd" clip-rule="evenodd" d="M407.351 331H429.649C430.947 331 432 329.928 432 328.606V325.394C432 324.072 430.947 323 429.649 323H407.351C406.053 323 405 324.072 405 325.394V328.606C405 329.928 406.053 331 407.351 331Z" fill="#FFDEDD"/>
<path fill-rule="evenodd" clip-rule="evenodd" d="M409.547 350H527.453C528.86 350 530 348.921 530 347.589V344.411C530 343.079 528.86 342 527.453 342H409.547C408.14 342 407 343.079 407 344.411V347.589C407 348.921 408.14 350 409.547 350Z" fill="#F4F2F9"/>
<path fill-rule="evenodd" clip-rule="evenodd" d="M527.453 366C528.86 366 530 364.921 530 363.589V360.411C530 359.079 528.86 358 527.453 358H409.547C408.14 358 407 359.079 407 360.411V363.589C407 364.921 408.14 366 409.547 366H527.453Z" fill="#F4F2F9"/>
<path fill-rule="evenodd" clip-rule="evenodd" d="M409.547 382H527.453C528.86 382 530 380.921 530 379.589V376.411C530 375.079 528.86 374 527.453 374H409.547C408.14 374 407 375.079 407 376.411V379.589C407 380.921 408.14 382 409.547 382Z" fill="#F4F2F9"/>
<path fill-rule="evenodd" clip-rule="evenodd" d="M409.547 395H527.453C528.86 395 530 393.921 530 392.589V389.411C530 388.079 528.86 387 527.453 387H409.547C408.14 387 407 388.079 407 389.411V392.589C407 393.921 408.14 395 409.547 395Z" fill="#F4F2F9"/>
<path fill-rule="evenodd" clip-rule="evenodd" d="M484.222 230.321C484.222 230.321 477.921 221.474 466.033 226.596C454.144 231.718 467.049 240.1 467.049 240.1C467.049 240.1 467.303 236.84 469.183 235.909L469.03 238.806L475.686 239.971L476.753 237.177L477.439 240.359L480.792 241.6C480.792 241.6 478.049 251.224 476.448 252.621C476.448 252.621 475.762 254.872 475.991 255.337C476.22 255.803 486.355 258.364 487.651 256.036C488.947 253.708 486.279 250.448 485.441 248.275C484.603 246.102 486.965 234.564 484.222 230.321Z" fill="#FC516B"/>
<path fill-rule="evenodd" clip-rule="evenodd" d="M513.352 206H530.648C531.947 206 533 204.657 533 203C533 201.343 531.947 200 530.648 200H513.352C512.053 200 511 201.343 511 203C511 204.657 512.053 206 513.352 206Z" fill="#E4DCF1"/>
<path fill-rule="evenodd" clip-rule="evenodd" d="M487 278C487 278 484.336 297.286 481.291 305H465.229C465.229 305 462.582 296.862 475.277 294.2C484.107 292.349 487 278 487 278Z" fill="#44AD99"/>
<path fill-rule="evenodd" clip-rule="evenodd" d="M455.389 273C455.389 273 452.13 283 452.741 286C453.352 289 456 291.2 456 293.2C456 295.2 454.37 302.8 454.37 302.8L445 303C445 303 446.556 302.735 450.093 299.95C455.491 295.7 450.857 286.325 452.002 281C452.603 278.206 455.389 273 455.389 273Z" fill="#44AD99"/>
<path fill-rule="evenodd" clip-rule="evenodd" d="M445 288.772C445 288.772 444.787 297.155 443.085 295.865C441.383 294.575 442.447 282.108 440.958 277.809C439.468 273.51 435 259.752 435 259.752L438.83 259L445 288.772Z" fill="#44AD99"/>
<path fill-rule="evenodd" clip-rule="evenodd" d="M419.623 250.475C419.623 250.475 418.047 251.167 416.124 253.521C415.487 254.301 412.093 255.542 411.29 256.509C399.645 270.529 384.094 281.35 374.126 277.042C361.396 271.54 359 266.424 359 266.424L367.414 255.062C367.414 255.062 377.077 269.821 384.848 265.801C392.62 261.781 407.94 251.244 407.94 251.244L408.346 244.78C408.346 244.78 409.241 244.54 409.67 245.775C410.1 247.011 410.12 248.079 410.12 248.079L416.169 241.055C416.169 241.055 417.331 240.695 416.977 241.824C416.623 242.953 414.486 246.192 414.486 246.192C414.486 246.192 414.267 246.808 414.729 246.527C415.269 246.2 419.495 241.435 419.495 241.435C419.495 241.435 420.468 241.371 420.071 242.301C419.764 243.018 417.206 246.392 416.341 247.655C416.083 248.031 416.623 247.891 416.623 247.891L420.119 244.921C420.592 244.601 421.082 244.707 420.988 245.288C420.914 245.748 419.962 246.807 419.396 247.227C417.982 248.273 416.996 250.179 416.996 250.179L420.04 249.08C420.04 249.08 420.635 249.607 419.623 250.475Z" fill="#FA9E89"/>
<path fill-rule="evenodd" clip-rule="evenodd" d="M348 213.49L351.851 241.81L364.495 244C364.495 244 363.854 243.332 363.123 242.44C362.375 241.533 361.532 240.391 361.16 239.474C360.31 237.37 360.304 235.408 360.304 235.408C360.304 235.408 365.912 236.041 366.781 232.813C367.653 229.581 365.638 214.529 365.638 214.529C365.638 214.529 363.136 205.071 348 213.49Z" fill="#FA9E89"/>
<path fill-rule="evenodd" clip-rule="evenodd" d="M358.613 213.812C358.613 213.812 364.849 218.522 370.832 214.51C370.832 214.51 367.04 214.161 365.86 212.242C365.86 212.242 368.219 212.853 371 208.928C371 208.928 366.113 209.626 364.428 208.143C362.742 206.66 354.147 204.305 349.007 207.881C343.867 211.457 343.951 214.074 343.951 214.074C343.951 214.074 340.918 215.207 341.002 216.952C341.086 218.696 348.501 233 348.501 233L350.102 226.633C350.102 226.633 348.838 227.011 348.08 224.046C347.322 221.08 350.608 222.359 350.945 222.97C351.282 223.581 353.473 218.783 353.473 218.783L353.136 215.993C353.136 215.993 352.04 212.417 358.613 213.812Z" fill="#261F27"/>
<path fill-rule="evenodd" clip-rule="evenodd" d="M346.786 346.384C350.377 360.871 343.736 418.793 343.736 418.793L350.234 420C376.395 359.985 370.41 311 370.41 311L341 313.414C341 313.414 341.075 312.19 341.106 312.48C341.444 315.488 343.514 333.169 346.786 346.384Z" fill="white"/>
<path fill-rule="evenodd" clip-rule="evenodd" d="M379.27 404.076L386.823 409.935C386.823 409.935 389.798 409.576 390.371 410.951C390.943 412.326 391 413.88 391 413.88L383.104 414L370 408.799L372.06 403L379.27 404.076Z" fill="#6397D9"/>
<path fill-rule="evenodd" clip-rule="evenodd" d="M349.449 421.341C349.449 421.341 352.122 425.662 354.815 429.192C355.72 430.378 357.932 430.893 358.793 433.787C359.533 436.276 358.053 438 358.053 438C358.053 438 353.088 437.106 349.634 434.043C346.181 430.979 341 425.106 341 425.106L342.418 420L349.449 421.341Z" fill="#6397D9"/>
<path fill-rule="evenodd" clip-rule="evenodd" d="M549 349C549 352.866 561.984 356 578 356C594.016 356 607 352.866 607 349C607 345.134 594.016 342 578 342C561.984 342 549 345.134 549 349Z" fill="#224A7D"/>
<path fill-rule="evenodd" clip-rule="evenodd" d="M549 348C549 351.866 561.984 355 578 355C594.016 355 607 351.866 607 348C607 344.134 594.016 341 578 341C561.984 341 549 344.134 549 348Z" fill="#6397D9"/>
<path fill-rule="evenodd" clip-rule="evenodd" d="M570 344C570 345.657 575.373 347 582 347C588.627 347 594 345.657 594 344C594 342.343 588.627 341 582 341C575.373 341 570 342.343 570 344Z" fill="#162F44"/>
<path fill-rule="evenodd" clip-rule="evenodd" d="M607 347V350.986C607 350.986 606.93 353.45 602 355L603.179 350.682C603.179 350.682 606.642 349.187 607 347Z" fill="#162F44"/>
<path fill-rule="evenodd" clip-rule="evenodd" d="M549.006 347V351.085C549.006 351.085 548.617 353.128 554 355L552.348 350.234C552.348 350.234 549.487 348.957 549.006 347Z" fill="#8CC5F2"/>
<path fill-rule="evenodd" clip-rule="evenodd" d="M568 334.038L569.968 341.728C570.456 343.642 572.391 345 574.621 345H578.854C580.439 345 581.879 344.315 582.753 343.228C583.059 342.847 583.295 342.416 583.446 341.95L585.152 336.637L586 334L568 334.038Z" fill="#FC516B"/>
<path fill-rule="evenodd" clip-rule="evenodd" d="M568 333C568 333.552 572.029 334 577 334C581.971 334 586 333.552 586 333C586 332.448 581.971 332 577 332C572.029 332 568 332.448 568 333Z" fill="#9B293F"/>
<path fill-rule="evenodd" clip-rule="evenodd" d="M580.406 343.657C580.052 343.794 579.718 343.91 579.405 344L581.516 343.676C581.806 343.274 582.029 342.819 582.173 342.326L583.789 336.718C583.87 336.448 584 336.019 584 336C584 336 579.785 337.242 576 336.818C577.231 336.982 580.31 337.23 582.168 337.138C582.628 337.115 582.995 337.507 582.932 337.953C582.698 339.61 582.027 343.027 580.406 343.657Z" fill="#F995A9"/>
<path fill-rule="evenodd" clip-rule="evenodd" d="M576 330.901L576.679 333.988L577.173 334C577.173 334 577.201 330.901 580.847 328.999C584.496 327.101 583.974 320 583.974 320L583.971 320.009C583.883 320.192 582.483 323.108 581.422 323.3C580.328 323.501 579.649 325.25 579.649 325.25C579.649 325.25 579.127 326 578.502 325.85C577.876 325.7 577.251 327.35 577.251 327.35L577.044 329.101L576 330.901Z" fill="#51A595"/>
<path fill-rule="evenodd" clip-rule="evenodd" d="M580.993 336.987C580.993 336.987 581.693 313.551 569.392 307C569.392 307 565.892 308.352 569.992 313.967C574.092 319.583 570.792 323.638 572.592 325.094C574.392 326.549 576.993 327.485 576.592 329.357C576.192 331.229 576.692 333.101 577.492 333.309C578.293 333.516 580.093 334.621 580.374 337L580.993 336.987Z" fill="#4EC9B4"/>
<path fill-rule="evenodd" clip-rule="evenodd" d="M581 332.8L581.041 333.988L581.578 334C581.578 334 581.609 330.901 585.572 328.999C589.54 327.101 588.972 320 588.972 320L588.968 320.009L588.632 321.077C588.632 327.526 584.909 328.864 583.42 329.725C581.931 330.586 581 332.8 581 332.8Z" fill="#41877A"/>
<path fill-rule="evenodd" clip-rule="evenodd" d="M361.185 244.105C361.185 244.105 350.633 244.277 349.691 243L349 244.898C349 244.898 357.361 249.455 363 247.522L361.185 244.105Z" fill="#306299"/>
<path fill-rule="evenodd" clip-rule="evenodd" d="M376 257.916L363.412 272C363.412 272 346.59 256.918 347.008 252.19C347.425 247.463 353.589 237.675 363.042 246.667C372.24 255.415 376 257.916 376 257.916Z" fill="#8CC5F2"/>
<path fill-rule="evenodd" clip-rule="evenodd" d="M343.565 419.654L346.131 420C346.131 420 358.157 377.53 354.202 346.153C353.012 336.719 348.857 313 348.857 313L341 313.737C341.318 316.76 343.357 333.592 346.426 346.874C349.793 361.436 343.565 419.654 343.565 419.654Z" fill="#F4F2F9"/>
<path fill-rule="evenodd" clip-rule="evenodd" d="M357.253 242.558C358.741 242.882 359.552 242.985 360 243C359.302 242.034 358.516 240.818 358.168 239.842C357.375 237.601 357.369 235.512 357.369 235.512C357.369 235.512 354.398 234.73 354.092 235.099C353.788 235.467 354.092 241.869 357.253 242.558Z" fill="#E6846F"/>
<path fill-rule="evenodd" clip-rule="evenodd" d="M503 246C503 256.493 511.048 265 520.973 265C525.129 265 528.954 263.509 532 261.004V230.996C528.954 228.491 525.129 227 520.973 227C511.048 227 503 235.508 503 246Z" fill="#CEC3E2"/>
<path fill-rule="evenodd" clip-rule="evenodd" d="M503 246.5C503 256.716 510.493 265 519.734 265C523.603 265 527.165 263.548 530 261.109V231.891C527.165 229.452 523.603 228 519.734 228C510.493 228 503 236.284 503 246.5Z" fill="#C3B8D8"/>
<path fill-rule="evenodd" clip-rule="evenodd" d="M477 263.096C477 263.096 478.985 261.992 479.298 261.791C479.612 261.592 483.687 262.693 489.124 268.307C494.557 273.921 489.854 278.631 492.152 281.638C494.453 284.645 492.259 290.96 491.108 295.272C489.958 299.581 491.108 304.994 491.108 304.994L491.168 305L492.989 304.994C492.989 304.994 499.573 276.126 488.914 264.999C486.318 262.293 482.944 260.296 479.267 259L477 263.096Z" fill="#44AD99"/>
</g>
</svg>
