<svg width="705" height="507" viewBox="0 0 705 507" fill="none" xmlns="http://www.w3.org/2000/svg">
<mask id="mask0_8067_1351" style="mask-type:alpha" maskUnits="userSpaceOnUse" x="0" y="0" width="705" height="507">
<rect width="705" height="507" fill="#D9D9D9"/>
</mask>
<g mask="url(#mask0_8067_1351)">
<rect x="-360" y="155" width="1000" height="352" rx="176" fill="#5267DF"/>
<rect x="227" y="72" width="350" height="346" rx="8" fill="#E8EAF6"/>
<mask id="mask1_8067_1351" style="mask-type:luminance" maskUnits="userSpaceOnUse" x="227" y="72" width="350" height="346">
<rect x="227" y="72" width="350" height="346" rx="8" fill="white"/>
</mask>
<g mask="url(#mask1_8067_1351)">
<rect x="223.47" y="72.1971" width="547" height="59" fill="#242A45"/>
<circle opacity="0.244768" cx="265.47" cy="102.197" r="16" fill="white"/>
<rect opacity="0.75" x="296.47" y="92.1971" width="120" height="6" rx="3" fill="white"/>
<rect opacity="0.25" x="296.47" y="106.197" width="64" height="6" rx="3" fill="white"/>
</g>
<g filter="url(#filter0_d_8067_1351)">
<rect x="254" y="210" width="200" height="255" rx="8" fill="white"/>
</g>
<rect opacity="0.5" x="322.683" y="245" width="101.317" height="6" rx="3" fill="#242A45"/>
<circle cx="293" cy="255" r="16" fill="#5267DF"/>
<rect opacity="0.25" x="322.683" y="259" width="54.0359" height="6" rx="3" fill="#242A45"/>
<circle cx="293" cy="311" r="16" fill="#5267DF"/>
<rect opacity="0.5" x="322.683" y="301" width="101.317" height="6" rx="3" fill="#242A45"/>
<rect opacity="0.25" x="322.683" y="315" width="54.0359" height="6" rx="3" fill="#242A45"/>
<circle cx="293" cy="367" r="16" fill="#5267DF"/>
<rect opacity="0.5" x="322.683" y="357" width="101.317" height="6" rx="3" fill="#242A45"/>
<rect opacity="0.25" x="322.683" y="371" width="54.0359" height="6" rx="3" fill="#242A45"/>
<circle cx="293" cy="423" r="16" fill="#5267DF"/>
<rect opacity="0.5" x="322.683" y="413" width="101.317" height="6" rx="3" fill="#242A45"/>
<rect opacity="0.25" x="322.683" y="427" width="54.0359" height="6" rx="3" fill="#242A45"/>
<g filter="url(#filter1_d_8067_1351)">
<g filter="url(#filter2_d_8067_1351)">
<rect x="478" y="210" width="200" height="255" rx="8" fill="white"/>
</g>
<rect opacity="0.5" x="546.683" y="245" width="101.317" height="6" rx="3" fill="#242A45"/>
<circle cx="517" cy="255" r="16" fill="#5267DF"/>
<rect opacity="0.25" x="546.683" y="259" width="54.0359" height="6" rx="3" fill="#242A45"/>
<circle cx="517" cy="311" r="16" fill="#FA5959"/>
<rect opacity="0.5" x="546.683" y="301" width="101.317" height="6" rx="3" fill="#242A45"/>
<rect opacity="0.25" x="546.683" y="315" width="54.0359" height="6" rx="3" fill="#242A45"/>
<circle cx="517" cy="367" r="16" fill="#5267DF"/>
<rect opacity="0.5" x="546.683" y="357" width="101.317" height="6" rx="3" fill="#242A45"/>
<rect opacity="0.25" x="546.683" y="371" width="54.0359" height="6" rx="3" fill="#242A45"/>
<circle cx="517" cy="423" r="16" fill="#5267DF"/>
<rect opacity="0.5" x="546.683" y="413" width="101.317" height="6" rx="3" fill="#242A45"/>
<rect opacity="0.25" x="546.683" y="427" width="54.0359" height="6" rx="3" fill="#242A45"/>
</g>
<rect x="254" y="157" width="237" height="34" rx="8" fill="white"/>
<circle cx="599" cy="241" r="67" fill="#495DCF" fill-opacity="0.20012" stroke="#5267DF" stroke-width="20"/>
<path d="M646 289L695 338" stroke="#5267DF" stroke-width="20" stroke-linecap="round" stroke-linejoin="round"/>
</g>
<defs>
<filter id="filter0_d_8067_1351" x="244" y="205" width="220" height="275" filterUnits="userSpaceOnUse" color-interpolation-filters="sRGB">
<feFlood flood-opacity="0" result="BackgroundImageFix"/>
<feColorMatrix in="SourceAlpha" type="matrix" values="0 0 0 0 0 0 0 0 0 0 0 0 0 0 0 0 0 0 127 0" result="hardAlpha"/>
<feOffset dy="5"/>
<feGaussianBlur stdDeviation="5"/>
<feColorMatrix type="matrix" values="0 0 0 0 0.285333 0 0 0 0 0.363695 0 0 0 0 0.811481 0 0 0 0.0830693 0"/>
<feBlend mode="normal" in2="BackgroundImageFix" result="effect1_dropShadow_8067_1351"/>
<feBlend mode="normal" in="SourceGraphic" in2="effect1_dropShadow_8067_1351" result="shape"/>
</filter>
<filter id="filter1_d_8067_1351" x="468" y="205" width="220" height="275" filterUnits="userSpaceOnUse" color-interpolation-filters="sRGB">
<feFlood flood-opacity="0" result="BackgroundImageFix"/>
<feColorMatrix in="SourceAlpha" type="matrix" values="0 0 0 0 0 0 0 0 0 0 0 0 0 0 0 0 0 0 127 0" result="hardAlpha"/>
<feOffset dy="5"/>
<feGaussianBlur stdDeviation="5"/>
<feColorMatrix type="matrix" values="0 0 0 0 0.285333 0 0 0 0 0.363695 0 0 0 0 0.811481 0 0 0 0.0830693 0"/>
<feBlend mode="normal" in2="BackgroundImageFix" result="effect1_dropShadow_8067_1351"/>
<feBlend mode="normal" in="SourceGraphic" in2="effect1_dropShadow_8067_1351" result="shape"/>
</filter>
<filter id="filter2_d_8067_1351" x="468" y="205" width="220" height="275" filterUnits="userSpaceOnUse" color-interpolation-filters="sRGB">
<feFlood flood-opacity="0" result="BackgroundImageFix"/>
<feColorMatrix in="SourceAlpha" type="matrix" values="0 0 0 0 0 0 0 0 0 0 0 0 0 0 0 0 0 0 127 0" result="hardAlpha"/>
<feOffset dy="5"/>
<feGaussianBlur stdDeviation="5"/>
<feColorMatrix type="matrix" values="0 0 0 0 0.285333 0 0 0 0 0.363695 0 0 0 0 0.811481 0 0 0 0.0830693 0"/>
<feBlend mode="normal" in2="BackgroundImageFix" result="effect1_dropShadow_8067_1351"/>
<feBlend mode="normal" in="SourceGraphic" in2="effect1_dropShadow_8067_1351" result="shape"/>
</filter>
</defs>
</svg>
