<svg width="705" height="507" viewBox="0 0 705 507" fill="none" xmlns="http://www.w3.org/2000/svg">
<mask id="mask0_8067_957" style="mask-type:alpha" maskUnits="userSpaceOnUse" x="0" y="0" width="705" height="507">
<rect width="705" height="507" fill="#D9D9D9"/>
</mask>
<g mask="url(#mask0_8067_957)">
<rect x="-360" y="155" width="1000" height="352" rx="176" fill="#5267DF"/>
<rect x="244" y="72" width="350" height="346" rx="8" fill="#E8EAF6"/>
<mask id="mask1_8067_957" style="mask-type:luminance" maskUnits="userSpaceOnUse" x="244" y="72" width="350" height="346">
<rect x="244" y="72" width="350" height="346" rx="8" fill="white"/>
</mask>
<g mask="url(#mask1_8067_957)">
<rect x="240.47" y="72.1971" width="547" height="59" fill="#242A45"/>
<circle opacity="0.244768" cx="282.47" cy="102.197" r="16" fill="white"/>
<rect opacity="0.75" x="313.47" y="92.1971" width="120" height="6" rx="3" fill="white"/>
<rect opacity="0.25" x="313.47" y="106.197" width="64" height="6" rx="3" fill="white"/>
</g>
<rect x="271" y="157" width="237" height="34" rx="8" fill="white"/>
<rect x="271" y="205" width="237" height="34" rx="8" fill="white"/>
<rect x="271" y="253" width="237" height="34" rx="8" fill="white"/>
<rect x="271" y="301" width="237" height="34" rx="8" fill="white"/>
<rect x="271" y="349" width="237" height="34" rx="8" fill="white"/>
<mask id="mask2_8067_957" style="mask-type:luminance" maskUnits="userSpaceOnUse" x="334" y="155" width="350" height="296">
<path fill-rule="evenodd" clip-rule="evenodd" d="M684 155.048H334.219V451H684V155.048Z" fill="white"/>
</mask>
<g mask="url(#mask2_8067_957)">
<path fill-rule="evenodd" clip-rule="evenodd" d="M335.293 405.34C335.963 407.358 337.008 409.338 338.467 411.275C363.669 444.749 457.843 455.908 550.691 449.089C599.167 445.527 633.361 424.563 654.972 405.34C660.135 400.746 664.582 396.252 668.332 392.117C673.001 386.972 676.645 381.257 679.242 375.222C686.888 357.444 685.416 336.906 674.119 320.061C664.542 305.785 651.397 295.237 644.606 283.518C631.674 261.201 700.043 204.782 655.552 169.138C639.848 156.554 606.393 153.65 569.89 155.602C525.462 157.98 476.525 167.557 449.606 175.647C393.894 192.384 359.026 216.628 351.067 243.903C343.109 271.179 364.378 283.521 382.947 309.557C400.442 334.083 324.394 372.554 335.293 405.34Z" fill="#3A499E"/>
</g>
<path fill-rule="evenodd" clip-rule="evenodd" d="M429.451 245.872L446.436 243L449 258.799L428 265L429.451 245.872Z" fill="#306299"/>
<path fill-rule="evenodd" clip-rule="evenodd" d="M447 244.118C447 244.118 460.176 243.771 474 238L467.504 250.254L448.751 256L447 244.118Z" fill="#FA9E89"/>
<mask id="mask3_8067_957" style="mask-type:luminance" maskUnits="userSpaceOnUse" x="524" y="157" width="158" height="220">
<path fill-rule="evenodd" clip-rule="evenodd" d="M682 157.048H524.175V376.892H682V157.048Z" fill="white"/>
</mask>
<g mask="url(#mask3_8067_957)">
<path opacity="0.152134" fill-rule="evenodd" clip-rule="evenodd" d="M524.933 209.186C533.045 249.345 670.94 310.876 677.571 376.892C684.689 359.14 683.318 338.634 672.802 321.814C663.887 307.559 651.651 297.027 645.329 285.325C633.291 263.043 696.934 206.707 655.519 171.117C640.9 158.552 609.758 155.652 575.779 157.602C565.435 159.966 517.615 172.933 524.933 209.186Z" fill="white"/>
</g>
<path opacity="0.149089" fill-rule="evenodd" clip-rule="evenodd" d="M332.179 398C331.195 405.866 334.521 411.336 335.819 413.227C358.249 445.899 480.314 456.79 562.951 450.135C606.096 446.659 641.455 424.42 663 399.916L332.179 398Z" fill="black"/>
<path opacity="0.128046" fill-rule="evenodd" clip-rule="evenodd" d="M610.373 401.812C610.373 401.812 620.45 402.422 620.295 405.472C620.14 408.521 613.784 415.23 613.784 415.23L623.293 411.825L652 410.732L648.899 413.401C648.899 413.401 625.773 414.468 624.74 415.281C623.706 416.094 610.476 426.057 608.203 426.463C605.929 426.87 461.515 426.688 461.515 426.688C461.515 426.688 446.657 427.277 444.176 422.702C441.696 418.128 432.704 418.433 430.223 422.397C427.743 426.362 428.087 441 428.087 441C428.087 441 421.294 439.227 420.921 439.069C397.356 429.106 371 398 371 398L610.373 401.812Z" fill="black"/>
<path fill-rule="evenodd" clip-rule="evenodd" d="M641 362.695L626.549 411.858C626.549 411.858 624.494 414.302 623 412.038L632.714 362L641 362.695Z" fill="#162F44"/>
<path fill-rule="evenodd" clip-rule="evenodd" d="M660.866 361L668 394.138L664.603 398L655 361.954L660.866 361Z" fill="#162F44"/>
<path fill-rule="evenodd" clip-rule="evenodd" d="M448.507 372.082L442.482 406.282L441.483 411.951L443.675 412.273L443.831 412.297L448.619 413C448.619 413 464.59 373.656 465.949 364.213C467.309 354.77 440.804 317 440.804 317L412.036 319.448C411.275 327.667 422.78 343.159 433.063 355.218C441.164 364.717 448.507 372.082 448.507 372.082Z" fill="#F4F2F9"/>
<path fill-rule="evenodd" clip-rule="evenodd" d="M448.119 370.535L441.243 410.302L443.389 410.623L443.462 411C443.462 411 443.489 410.878 443.542 410.648C444.417 406.818 454.682 372.911 454.994 366C455.327 358.674 440.967 336 440.967 336L433 353.714C440.931 363.188 448.119 370.535 448.119 370.535Z" fill="#E0DFEA"/>
<path fill-rule="evenodd" clip-rule="evenodd" d="M410 321L438.667 318.613L440 270.886C440 270.886 433 246 425.333 246C420.78 246 416.347 247.804 413.634 252.195C411.78 255.198 410.73 259.415 411 265.091C411.61 277.868 410.27 313.998 410.033 320.113C410.014 320.69 410 321 410 321Z" fill="#6397D9"/>
<path fill-rule="evenodd" clip-rule="evenodd" d="M417.885 317.276L417.347 260.458L424 246.937L416.237 246L413.508 249.211C411.719 252.213 410.705 256.429 410.966 262.104C411.555 274.878 410.229 311.886 410 318L417.885 317.276Z" fill="#8BBFF7"/>
<path fill-rule="evenodd" clip-rule="evenodd" d="M418 262L439.017 302L439.563 284.009L440 269.411L422.476 262H418Z" fill="#306299"/>
<path fill-rule="evenodd" clip-rule="evenodd" d="M471.671 425H600.329C605.118 425 609 421.092 609 416.27V195.73C609 190.908 605.118 187 600.329 187H471.671C466.882 187 463 190.908 463 195.73V416.27C463 421.092 466.882 425 471.671 425Z" fill="white"/>
<path fill-rule="evenodd" clip-rule="evenodd" d="M471 218.29V306.71C471 308.528 472.456 310 474.253 310H597.747C599.544 310 601 308.528 601 306.71V218.29C601 216.472 599.544 215 597.747 215H474.253C472.456 215 471 216.472 471 218.29Z" fill="#E4DCF1"/>
<path fill-rule="evenodd" clip-rule="evenodd" d="M535.147 239L536.699 240.183L540 254.554L539.929 256.921L534.702 257C534.347 257.005 533.989 256.935 533.671 256.749C532.177 255.872 531.539 253.425 532.364 251.257C532.808 250.091 533.945 248.028 534.077 247.115C534.391 244.931 535.147 239 535.147 239Z" fill="#8E2B43"/>
<path fill-rule="evenodd" clip-rule="evenodd" d="M508 313L562.224 312.792L564.019 312.786C564.019 312.786 570.506 282.137 560.003 270.325C557.445 267.451 554.12 265.332 550.497 263.956C539.224 259.658 525.044 262.5 522.004 271.921C517.988 284.372 508 313 508 313Z" fill="#4EC9B4"/>
<path fill-rule="evenodd" clip-rule="evenodd" d="M550.16 264.489C550.16 264.489 547.945 270.515 543.057 271.783C538.169 273.052 532.568 268.559 533.026 263.326C533.026 263.326 537.711 262.639 538.474 260.366C539.402 257.605 538.78 257.512 538.78 257.512C538.78 257.512 536.947 254.023 536.336 251.486C535.725 248.949 536.641 239.117 540.918 238.165C543.623 237.564 547.945 238.483 551 242.923C551 242.923 549.472 251.486 547.334 255.609C545.195 259.732 544.126 261.635 550.16 264.489Z" fill="#FA9E89"/>
<path opacity="0.184408" fill-rule="evenodd" clip-rule="evenodd" d="M474.167 188.013L607 374.239V416.483C607 421.187 603.301 425 598.737 425H478.573C473.286 425 469 420.582 469 415.131V191.827C469 188.898 471.33 187.871 474.167 188.013Z" fill="#F4F2F9"/>
<path fill-rule="evenodd" clip-rule="evenodd" d="M514 294.442L507.018 264L496 265.816L506.684 310L514 294.442Z" fill="#4EC9B4"/>
<path fill-rule="evenodd" clip-rule="evenodd" d="M504.8 263.137L504.2 260.031C504.2 260.031 506 258.847 505.7 257.072C505.4 255.297 506 251.155 506 251.155C506 251.155 505.043 250.508 504.425 251.673C503.984 252.502 503.3 254.41 503.3 254.41C503.3 254.41 501.004 248.244 500.474 246.619C500.249 245.929 500.022 244.853 499.499 245.017C499.224 245.103 499.324 245.732 499.371 246.347C499.511 248.191 500.299 251.131 500.299 251.131L499.899 251.365L498.236 246.089C498.163 245.833 498.043 245.445 497.774 245.424C497.536 245.405 497.299 245.535 497.299 246.126C497.299 247.31 498.574 252.203 498.574 252.203L498.255 252.422L496.32 248.144C496.187 247.821 495.707 247.849 495.625 248.188C495.56 248.456 495.579 248.839 495.798 249.38C496.398 250.86 496.999 253.226 496.999 253.226L496.848 253.399L495.798 251.229C495.61 250.882 495.149 250.659 495.015 251.029C494.827 251.547 496.473 256 496.473 256.296C496.473 256.592 497.599 260.622 498.799 260.918C499.999 261.214 500.074 264 500.074 264L504.8 263.137Z" fill="#FA9E89"/>
<path fill-rule="evenodd" clip-rule="evenodd" d="M574.351 336H596.649C597.947 336 599 334.928 599 333.606V330.394C599 329.072 597.947 328 596.649 328H574.351C573.053 328 572 329.072 572 330.394V333.606C572 334.928 573.053 336 574.351 336Z" fill="#FFDEDD"/>
<path fill-rule="evenodd" clip-rule="evenodd" d="M542.351 336H564.649C565.947 336 567 334.928 567 333.606V330.394C567 329.072 565.947 328 564.649 328H542.351C541.053 328 540 329.072 540 330.394V333.606C540 334.928 541.053 336 542.351 336Z" fill="#FFDEDD"/>
<path fill-rule="evenodd" clip-rule="evenodd" d="M508.352 336H530.649C531.947 336 533 334.928 533 333.606V330.394C533 329.072 531.947 328 530.649 328H508.352C507.053 328 506 329.072 506 330.394V333.606C506 334.928 507.053 336 508.352 336Z" fill="#FFDEDD"/>
<path fill-rule="evenodd" clip-rule="evenodd" d="M476.351 336H498.649C499.947 336 501 334.928 501 333.606V330.394C501 329.072 499.947 328 498.649 328H476.351C475.053 328 474 329.072 474 330.394V333.606C474 334.928 475.053 336 476.351 336Z" fill="#FFDEDD"/>
<path fill-rule="evenodd" clip-rule="evenodd" d="M478.547 355H596.453C597.86 355 599 353.921 599 352.589V349.411C599 348.079 597.86 347 596.453 347H478.547C477.14 347 476 348.079 476 349.411V352.589C476 353.921 477.14 355 478.547 355Z" fill="#F4F2F9"/>
<path fill-rule="evenodd" clip-rule="evenodd" d="M596.453 371C597.86 371 599 369.921 599 368.589V365.411C599 364.079 597.86 363 596.453 363H478.547C477.14 363 476 364.079 476 365.411V368.589C476 369.921 477.14 371 478.547 371H596.453Z" fill="#F4F2F9"/>
<path fill-rule="evenodd" clip-rule="evenodd" d="M478.547 387H596.453C597.86 387 599 385.921 599 384.589V381.411C599 380.079 597.86 379 596.453 379H478.547C477.14 379 476 380.079 476 381.411V384.589C476 385.921 477.14 387 478.547 387Z" fill="#F4F2F9"/>
<path fill-rule="evenodd" clip-rule="evenodd" d="M478.547 400H596.453C597.86 400 599 398.921 599 397.589V394.411C599 393.079 597.86 392 596.453 392H478.547C477.14 392 476 393.079 476 394.411V397.589C476 398.921 477.14 400 478.547 400Z" fill="#F4F2F9"/>
<path fill-rule="evenodd" clip-rule="evenodd" d="M553.222 235.321C553.222 235.321 546.921 226.473 535.033 231.596C523.144 236.718 536.049 245.1 536.049 245.1C536.049 245.1 536.303 241.84 538.183 240.909L538.03 243.806L544.686 244.971L545.753 242.177L546.439 245.359L549.792 246.6C549.792 246.6 547.049 256.224 545.448 257.621C545.448 257.621 544.762 259.872 544.991 260.337C545.22 260.803 555.355 263.364 556.651 261.036C557.947 258.708 555.279 255.448 554.441 253.275C553.603 251.102 555.965 239.564 553.222 235.321Z" fill="#FC516B"/>
<path fill-rule="evenodd" clip-rule="evenodd" d="M582.352 211H599.648C600.947 211 602 209.657 602 208C602 206.343 600.947 205 599.648 205H582.352C581.053 205 580 206.343 580 208C580 209.657 581.053 211 582.352 211Z" fill="#E4DCF1"/>
<path fill-rule="evenodd" clip-rule="evenodd" d="M556 283C556 283 553.336 302.286 550.291 310H534.229C534.229 310 531.582 301.862 544.277 299.2C553.107 297.349 556 283 556 283Z" fill="#44AD99"/>
<path fill-rule="evenodd" clip-rule="evenodd" d="M524.389 278C524.389 278 521.13 288 521.741 291C522.352 294 525 296.2 525 298.2C525 300.2 523.37 307.8 523.37 307.8L514 308C514 308 515.556 307.734 519.093 304.95C524.491 300.7 519.857 291.325 521.002 286C521.603 283.206 524.389 278 524.389 278Z" fill="#44AD99"/>
<path fill-rule="evenodd" clip-rule="evenodd" d="M514 293.772C514 293.772 513.787 302.155 512.085 300.865C510.383 299.575 511.447 287.108 509.958 282.809C508.468 278.51 504 264.752 504 264.752L507.83 264L514 293.772Z" fill="#44AD99"/>
<path fill-rule="evenodd" clip-rule="evenodd" d="M488.623 255.475C488.623 255.475 487.047 256.167 485.124 258.521C484.487 259.301 481.093 260.542 480.29 261.509C468.645 275.529 453.094 286.35 443.126 282.042C430.396 276.54 428 271.424 428 271.424L436.414 260.062C436.414 260.062 446.077 274.821 453.848 270.801C461.62 266.781 476.94 256.244 476.94 256.244L477.346 249.78C477.346 249.78 478.241 249.54 478.67 250.775C479.1 252.011 479.12 253.079 479.12 253.079L485.169 246.055C485.169 246.055 486.331 245.695 485.977 246.824C485.623 247.953 483.486 251.192 483.486 251.192C483.486 251.192 483.267 251.808 483.729 251.527C484.269 251.2 488.495 246.435 488.495 246.435C488.495 246.435 489.468 246.371 489.071 247.301C488.764 248.018 486.206 251.392 485.341 252.655C485.083 253.031 485.623 252.89 485.623 252.89L489.119 249.921C489.592 249.601 490.082 249.707 489.988 250.288C489.914 250.748 488.962 251.807 488.396 252.227C486.982 253.273 485.996 255.179 485.996 255.179L489.04 254.08C489.04 254.08 489.635 254.607 488.623 255.475Z" fill="#FA9E89"/>
<path fill-rule="evenodd" clip-rule="evenodd" d="M417 218.49L420.851 246.81L433.495 249C433.495 249 432.854 248.332 432.123 247.44C431.375 246.533 430.532 245.391 430.16 244.474C429.31 242.37 429.304 240.408 429.304 240.408C429.304 240.408 434.912 241.041 435.781 237.813C436.653 234.581 434.638 219.529 434.638 219.529C434.638 219.529 432.136 210.071 417 218.49Z" fill="#FA9E89"/>
<path fill-rule="evenodd" clip-rule="evenodd" d="M427.613 218.812C427.613 218.812 433.849 223.522 439.832 219.51C439.832 219.51 436.04 219.161 434.86 217.242C434.86 217.242 437.219 217.853 440 213.928C440 213.928 435.113 214.626 433.428 213.143C431.742 211.66 423.147 209.305 418.007 212.881C412.867 216.457 412.951 219.074 412.951 219.074C412.951 219.074 409.918 220.207 410.002 221.952C410.086 223.696 417.501 238 417.501 238L419.102 231.633C419.102 231.633 417.838 232.011 417.08 229.046C416.322 226.08 419.608 227.359 419.945 227.97C420.282 228.581 422.473 223.783 422.473 223.783L422.136 220.992C422.136 220.992 421.04 217.416 427.613 218.812Z" fill="#261F27"/>
<path fill-rule="evenodd" clip-rule="evenodd" d="M415.786 351.384C419.377 365.871 412.736 423.793 412.736 423.793L419.234 425C445.395 364.985 439.41 316 439.41 316L410 318.414C410 318.414 410.075 317.19 410.106 317.48C410.444 320.488 412.514 338.169 415.786 351.384Z" fill="white"/>
<path fill-rule="evenodd" clip-rule="evenodd" d="M448.27 409.076L455.823 414.935C455.823 414.935 458.798 414.576 459.371 415.951C459.943 417.326 460 418.88 460 418.88L452.104 419L439 413.799L441.06 408L448.27 409.076Z" fill="#6397D9"/>
<path fill-rule="evenodd" clip-rule="evenodd" d="M418.449 426.34C418.449 426.34 421.122 430.662 423.815 434.192C424.72 435.378 426.932 435.893 427.793 438.787C428.533 441.276 427.053 443 427.053 443C427.053 443 422.088 442.106 418.634 439.043C415.181 435.979 410 430.106 410 430.106L411.418 425L418.449 426.34Z" fill="#6397D9"/>
<path fill-rule="evenodd" clip-rule="evenodd" d="M618 354C618 357.866 630.984 361 647 361C663.016 361 676 357.866 676 354C676 350.134 663.016 347 647 347C630.984 347 618 350.134 618 354Z" fill="#224A7D"/>
<path fill-rule="evenodd" clip-rule="evenodd" d="M618 353C618 356.866 630.984 360 647 360C663.016 360 676 356.866 676 353C676 349.134 663.016 346 647 346C630.984 346 618 349.134 618 353Z" fill="#6397D9"/>
<path fill-rule="evenodd" clip-rule="evenodd" d="M639 349C639 350.657 644.373 352 651 352C657.627 352 663 350.657 663 349C663 347.343 657.627 346 651 346C644.373 346 639 347.343 639 349Z" fill="#162F44"/>
<path fill-rule="evenodd" clip-rule="evenodd" d="M676 352V355.986C676 355.986 675.93 358.45 671 360L672.179 355.682C672.179 355.682 675.642 354.187 676 352Z" fill="#162F44"/>
<path fill-rule="evenodd" clip-rule="evenodd" d="M618.006 352V356.085C618.006 356.085 617.617 358.128 623 360L621.348 355.234C621.348 355.234 618.487 353.957 618.006 352Z" fill="#8CC5F2"/>
<path fill-rule="evenodd" clip-rule="evenodd" d="M637 339.038L638.968 346.728C639.456 348.642 641.391 350 643.621 350H647.854C649.439 350 650.879 349.315 651.753 348.228C652.059 347.847 652.295 347.416 652.446 346.95L654.152 341.637L655 339L637 339.038Z" fill="#FC516B"/>
<path fill-rule="evenodd" clip-rule="evenodd" d="M637 338C637 338.552 641.029 339 646 339C650.971 339 655 338.552 655 338C655 337.448 650.971 337 646 337C641.029 337 637 337.448 637 338Z" fill="#9B293F"/>
<path fill-rule="evenodd" clip-rule="evenodd" d="M649.406 348.657C649.052 348.794 648.718 348.91 648.405 349L650.516 348.676C650.806 348.274 651.029 347.819 651.173 347.326L652.789 341.718C652.87 341.448 653 341.019 653 341C653 341 648.785 342.242 645 341.818C646.231 341.982 649.31 342.23 651.168 342.138C651.628 342.115 651.995 342.507 651.932 342.953C651.698 344.61 651.027 348.027 649.406 348.657Z" fill="#F995A9"/>
<path fill-rule="evenodd" clip-rule="evenodd" d="M645 335.901L645.679 338.988L646.173 339C646.173 339 646.201 335.901 649.847 333.999C653.496 332.1 652.974 325 652.974 325L652.971 325.009C652.883 325.192 651.483 328.108 650.422 328.3C649.328 328.501 648.649 330.25 648.649 330.25C648.649 330.25 648.127 331 647.502 330.85C646.876 330.7 646.251 332.349 646.251 332.349L646.044 334.101L645 335.901Z" fill="#51A595"/>
<path fill-rule="evenodd" clip-rule="evenodd" d="M649.993 341.987C649.993 341.987 650.693 318.551 638.392 312C638.392 312 634.892 313.352 638.992 318.967C643.092 324.582 639.792 328.638 641.592 330.094C643.392 331.549 645.993 332.485 645.592 334.357C645.192 336.229 645.692 338.101 646.492 338.309C647.293 338.516 649.093 339.621 649.374 342L649.993 341.987Z" fill="#4EC9B4"/>
<path fill-rule="evenodd" clip-rule="evenodd" d="M650 337.8L650.041 338.988L650.578 339C650.578 339 650.609 335.901 654.572 333.999C658.54 332.1 657.972 325 657.972 325L657.968 325.009L657.632 326.077C657.632 332.526 653.909 333.864 652.42 334.725C650.931 335.586 650 337.8 650 337.8Z" fill="#41877A"/>
<path fill-rule="evenodd" clip-rule="evenodd" d="M430.185 249.105C430.185 249.105 419.633 249.277 418.691 248L418 249.898C418 249.898 426.361 254.455 432 252.522L430.185 249.105Z" fill="#306299"/>
<path fill-rule="evenodd" clip-rule="evenodd" d="M445 262.916L432.412 277C432.412 277 415.59 261.918 416.008 257.19C416.425 252.463 422.589 242.675 432.042 251.667C441.24 260.415 445 262.916 445 262.916Z" fill="#8CC5F2"/>
<path fill-rule="evenodd" clip-rule="evenodd" d="M412.565 424.654L415.131 425C415.131 425 427.157 382.53 423.202 351.153C422.012 341.719 417.857 318 417.857 318L410 318.737C410.318 321.76 412.357 338.592 415.426 351.874C418.793 366.436 412.565 424.654 412.565 424.654Z" fill="#F4F2F9"/>
<path fill-rule="evenodd" clip-rule="evenodd" d="M426.253 247.558C427.741 247.882 428.552 247.985 429 248C428.302 247.034 427.516 245.818 427.168 244.842C426.375 242.601 426.369 240.512 426.369 240.512C426.369 240.512 423.398 239.73 423.092 240.099C422.788 240.467 423.092 246.869 426.253 247.558Z" fill="#E6846F"/>
<path fill-rule="evenodd" clip-rule="evenodd" d="M572 251C572 261.492 580.048 270 589.973 270C594.129 270 597.954 268.509 601 266.004V235.996C597.954 233.491 594.129 232 589.973 232C580.048 232 572 240.508 572 251Z" fill="#CEC3E2"/>
<path fill-rule="evenodd" clip-rule="evenodd" d="M572 251.5C572 261.716 579.493 270 588.734 270C592.603 270 596.165 268.548 599 266.109V236.891C596.165 234.452 592.603 233 588.734 233C579.493 233 572 241.284 572 251.5Z" fill="#C3B8D8"/>
<path fill-rule="evenodd" clip-rule="evenodd" d="M546 268.096C546 268.096 547.985 266.992 548.298 266.791C548.612 266.592 552.687 267.693 558.124 273.307C563.557 278.921 558.854 283.631 561.152 286.638C563.453 289.645 561.259 295.96 560.108 300.272C558.958 304.581 560.108 309.994 560.108 309.994L560.168 310L561.989 309.994C561.989 309.994 568.573 281.126 557.914 269.999C555.318 267.293 551.944 265.296 548.267 264L546 268.096Z" fill="#44AD99"/>
</g>
</svg>
