<svg width="375" height="282" viewBox="0 0 375 282" fill="none" xmlns="http://www.w3.org/2000/svg">
<mask id="mask0_8073_1871" style="mask-type:alpha" maskUnits="userSpaceOnUse" x="0" y="0" width="375" height="282">
<rect width="375" height="282" fill="#D9D9D9"/>
</mask>
<g mask="url(#mask0_8073_1871)">
<rect x="-269" y="79" width="577" height="203" rx="101.5" fill="#5267DF"/>
<ellipse cx="93.2903" cy="127.043" rx="9.29032" ry="9.25714" fill="#F98E5D"/>
<rect opacity="0.25" x="248.903" y="112" width="51.0968" height="3.47143" rx="1.73571" fill="#242A45"/>
<rect opacity="0.25" x="248.903" y="123.571" width="51.0968" height="3.47143" rx="1.73571" fill="#242A45"/>
<rect opacity="0.25" x="248.903" y="135.143" width="51.0968" height="3.47143" rx="1.73571" fill="#242A45"/>
<rect opacity="0.25" x="248.903" y="146.714" width="51.0968" height="3.47143" rx="1.73571" fill="#242A45"/>
<rect opacity="0.25" x="248.903" y="166.386" width="51.0968" height="3.47143" rx="1.73571" fill="#242A45"/>
<rect opacity="0.25" x="248.903" y="177.957" width="51.0968" height="3.47143" rx="1.73571" fill="#242A45"/>
<rect opacity="0.25" x="248.903" y="189.529" width="51.0968" height="3.47143" rx="1.73571" fill="#242A45"/>
<rect opacity="0.25" x="111.29" y="129.357" width="37.1613" height="3.47143" rx="1.73571" fill="#242A45"/>
<ellipse cx="93.2934" cy="159.5" rx="9.29341" ry="9.5" fill="#6AC6D6"/>
<rect opacity="0.5" x="111.3" y="153.562" width="69.7006" height="3.5625" rx="1.78125" fill="#242A45"/>
<rect opacity="0.25" x="111.3" y="161.875" width="37.1737" height="3.5625" rx="1.78125" fill="#242A45"/>
<ellipse cx="93.2934" cy="192.5" rx="9.29341" ry="9.5" fill="#A47ED4"/>
<rect opacity="0.5" x="111.3" y="186.562" width="69.7006" height="3.5625" rx="1.78125" fill="#242A45"/>
<rect opacity="0.25" x="111.3" y="194.875" width="37.1737" height="3.5625" rx="1.78125" fill="#242A45"/>
<ellipse cx="93.2934" cy="224.5" rx="9.29341" ry="9.5" fill="#EC7878"/>
<rect opacity="0.5" x="111.3" y="218.562" width="69.7006" height="3.5625" rx="1.78125" fill="#242A45"/>
<rect opacity="0.25" x="111.3" y="226.875" width="37.1737" height="3.5625" rx="1.78125" fill="#242A45"/>
<rect x="61" y="31" width="202.632" height="200.316" rx="8" fill="#E8EAF6"/>
<mask id="mask1_8073_1871" style="mask-type:luminance" maskUnits="userSpaceOnUse" x="61" y="31" width="203" height="201">
<rect x="61" y="31" width="202.632" height="200.316" rx="8" fill="white"/>
</mask>
<g mask="url(#mask1_8073_1871)">
<rect x="58.9561" y="31.1141" width="316.684" height="34.1579" fill="#242A45"/>
<circle opacity="0.244768" cx="83.2719" cy="48.4826" r="9.26316" fill="white"/>
<rect opacity="0.75" x="101.22" y="42.6931" width="69.4737" height="3.47368" rx="1.73684" fill="white"/>
<rect opacity="0.25" x="101.22" y="50.7983" width="37.0526" height="3.47368" rx="1.73684" fill="white"/>
</g>
<rect x="76.6318" y="80.2105" width="137.211" height="19.6842" rx="8" fill="white"/>
<rect x="76.6318" y="108" width="137.211" height="19.6842" rx="8" fill="white"/>
<rect x="76.6318" y="135.789" width="137.211" height="19.6842" rx="8" fill="white"/>
<rect x="76.6318" y="163.579" width="137.211" height="19.6842" rx="8" fill="white"/>
<rect x="76.6318" y="191.368" width="137.211" height="19.6842" rx="8" fill="white"/>
<mask id="mask2_8073_1871" style="mask-type:luminance" maskUnits="userSpaceOnUse" x="113" y="79" width="203" height="172">
<path fill-rule="evenodd" clip-rule="evenodd" d="M315.736 79.0804H113.232V250.421H315.736V79.0804Z" fill="white"/>
</mask>
<g mask="url(#mask2_8073_1871)">
<path fill-rule="evenodd" clip-rule="evenodd" d="M113.853 223.986C114.241 225.154 114.846 226.301 115.691 227.422C130.281 246.802 184.803 253.262 238.557 249.314C266.622 247.253 286.419 235.115 298.931 223.986C301.92 221.327 304.494 218.725 306.665 216.331C309.368 213.352 311.478 210.043 312.982 206.549C317.409 196.257 316.556 184.367 310.015 174.614C304.471 166.349 296.861 160.243 292.929 153.458C285.442 140.538 325.024 107.874 299.267 87.2376C290.175 79.9524 270.806 78.2708 249.673 79.4013C223.951 80.7776 195.619 86.3226 180.034 91.0059C147.78 100.696 127.593 114.732 122.986 130.523C118.378 146.314 130.692 153.459 141.443 168.533C151.571 182.732 107.543 205.005 113.853 223.986Z" fill="#3A499E"/>
</g>
<path fill-rule="evenodd" clip-rule="evenodd" d="M168.366 131.663L178.199 130L179.684 139.147L167.526 142.737L168.366 131.663Z" fill="#306299"/>
<path fill-rule="evenodd" clip-rule="evenodd" d="M178.525 130.647C178.525 130.647 186.153 130.446 194.156 127.105L190.396 134.2L179.538 137.526L178.525 130.647Z" fill="#FA9E89"/>
<mask id="mask3_8073_1871" style="mask-type:luminance" maskUnits="userSpaceOnUse" x="223" y="80" width="92" height="128">
<path fill-rule="evenodd" clip-rule="evenodd" d="M314.578 80.2383H223.206V207.517H314.578V80.2383Z" fill="white"/>
</mask>
<g mask="url(#mask3_8073_1871)">
<path opacity="0.152134" fill-rule="evenodd" clip-rule="evenodd" d="M223.645 110.424C228.341 133.673 308.175 169.297 312.014 207.517C316.135 197.239 315.341 185.367 309.253 175.629C304.092 167.376 297.008 161.279 293.348 154.504C286.378 141.604 323.224 108.988 299.247 88.3833C290.783 81.1088 272.754 79.43 253.082 80.5588C247.093 81.9276 219.408 89.4351 223.645 110.424Z" fill="white"/>
</g>
<path opacity="0.149089" fill-rule="evenodd" clip-rule="evenodd" d="M112.051 219.737C111.482 224.291 113.407 227.458 114.159 228.552C127.144 247.468 197.814 253.773 245.656 249.92C270.635 247.908 291.106 235.033 303.579 220.846L112.051 219.737Z" fill="black"/>
<path opacity="0.128046" fill-rule="evenodd" clip-rule="evenodd" d="M273.11 221.944C273.11 221.944 278.944 222.297 278.855 224.062C278.765 225.828 275.085 229.712 275.085 229.712L280.59 227.741L297.21 227.108L295.415 228.653C295.415 228.653 282.026 229.271 281.428 229.742C280.829 230.213 273.17 235.98 271.854 236.216C270.537 236.451 186.929 236.346 186.929 236.346C186.929 236.346 178.327 236.686 176.891 234.038C175.455 231.39 170.249 231.566 168.813 233.861C167.377 236.157 167.576 244.632 167.576 244.632C167.576 244.632 163.644 243.605 163.427 243.513C149.784 237.746 134.526 219.737 134.526 219.737L273.11 221.944Z" fill="black"/>
<path fill-rule="evenodd" clip-rule="evenodd" d="M290.842 199.297L282.476 227.76C282.476 227.76 281.286 229.175 280.421 227.864L286.045 198.895L290.842 199.297Z" fill="#162F44"/>
<path fill-rule="evenodd" clip-rule="evenodd" d="M302.343 198.316L306.474 217.501L304.507 219.737L298.947 198.868L302.343 198.316Z" fill="#162F44"/>
<path fill-rule="evenodd" clip-rule="evenodd" d="M179.398 204.732L175.91 224.532L175.332 227.814L176.601 228L176.691 228.014L179.463 228.421C179.463 228.421 188.709 205.643 189.496 200.176C190.283 194.709 174.938 172.842 174.938 172.842L158.283 174.26C157.842 179.018 164.504 187.987 170.457 194.968C175.147 200.468 179.398 204.732 179.398 204.732Z" fill="#F4F2F9"/>
<path fill-rule="evenodd" clip-rule="evenodd" d="M179.173 203.836L175.192 226.859L176.434 227.045L176.476 227.263C176.476 227.263 176.492 227.193 176.522 227.059C177.029 224.842 182.972 205.211 183.153 201.21C183.345 196.969 175.032 183.842 175.032 183.842L170.419 194.098C175.011 199.583 179.173 203.836 179.173 203.836Z" fill="#E0DFEA"/>
<path fill-rule="evenodd" clip-rule="evenodd" d="M157.104 175.158L173.701 173.776L174.473 146.145C174.473 146.145 170.42 131.737 165.981 131.737C163.345 131.737 160.779 132.781 159.208 135.323C158.135 137.062 157.527 139.503 157.683 142.79C158.036 150.187 157.261 171.104 157.124 174.645C157.112 174.978 157.104 175.158 157.104 175.158Z" fill="#6397D9"/>
<path fill-rule="evenodd" clip-rule="evenodd" d="M161.67 173.002L161.358 140.107L165.21 132.28L160.716 131.737L159.136 133.596C158.1 135.334 157.513 137.775 157.664 141.06C158.005 148.456 157.237 169.881 157.105 173.421L161.67 173.002Z" fill="#8BBFF7"/>
<path fill-rule="evenodd" clip-rule="evenodd" d="M161.736 141L173.904 164.158L174.22 153.742L174.473 145.291L164.327 141H161.736Z" fill="#306299"/>
<path fill-rule="evenodd" clip-rule="evenodd" d="M192.809 235.368H267.295C270.068 235.368 272.315 233.106 272.315 230.314V102.633C272.315 99.8417 270.068 97.5789 267.295 97.5789H192.809C190.037 97.5789 187.789 99.8417 187.789 102.633V230.314C187.789 233.106 190.037 235.368 192.809 235.368Z" fill="white"/>
<path fill-rule="evenodd" clip-rule="evenodd" d="M192.421 115.694V166.884C192.421 167.937 193.264 168.789 194.305 168.789H265.801C266.842 168.789 267.685 167.937 267.685 166.884V115.694C267.685 114.642 266.842 113.789 265.801 113.789H194.305C193.264 113.789 192.421 114.642 192.421 115.694Z" fill="#E4DCF1"/>
<path fill-rule="evenodd" clip-rule="evenodd" d="M229.559 127.684L230.457 128.369L232.368 136.689L232.327 138.06L229.301 138.105C229.096 138.108 228.888 138.068 228.704 137.96C227.839 137.452 227.47 136.035 227.947 134.781C228.204 134.105 228.863 132.911 228.939 132.383C229.121 131.118 229.559 127.684 229.559 127.684Z" fill="#8E2B43"/>
<path fill-rule="evenodd" clip-rule="evenodd" d="M213.842 170.526L245.235 170.406L246.274 170.402C246.274 170.402 250.03 152.658 243.949 145.82C242.468 144.156 240.543 142.929 238.445 142.132C231.919 139.644 223.709 141.289 221.949 146.744C219.624 153.952 213.842 170.526 213.842 170.526Z" fill="#4EC9B4"/>
<path fill-rule="evenodd" clip-rule="evenodd" d="M238.25 142.441C238.25 142.441 236.968 145.93 234.138 146.664C231.308 147.398 228.065 144.797 228.331 141.768C228.331 141.768 231.042 141.37 231.485 140.054C232.022 138.456 231.662 138.401 231.662 138.401C231.662 138.401 230.6 136.382 230.247 134.913C229.893 133.444 230.423 127.752 232.9 127.201C234.466 126.853 236.968 127.385 238.736 129.955C238.736 129.955 237.852 134.913 236.614 137.3C235.376 139.687 234.757 140.788 238.25 142.441Z" fill="#FA9E89"/>
<path opacity="0.184408" fill-rule="evenodd" clip-rule="evenodd" d="M194.254 98.1652L271.157 205.981V230.437C271.157 233.161 269.016 235.368 266.373 235.368H196.805C193.744 235.368 191.262 232.811 191.262 229.655V100.373C191.262 98.6779 192.611 98.0834 194.254 98.1652Z" fill="#F4F2F9"/>
<path fill-rule="evenodd" clip-rule="evenodd" d="M217.315 159.782L213.273 142.158L206.894 143.209L213.08 168.79L217.315 159.782Z" fill="#4EC9B4"/>
<path fill-rule="evenodd" clip-rule="evenodd" d="M211.99 141.658L211.642 139.86C211.642 139.86 212.685 139.175 212.511 138.147C212.337 137.119 212.685 134.722 212.685 134.722C212.685 134.722 212.131 134.347 211.773 135.021C211.518 135.501 211.121 136.606 211.121 136.606C211.121 136.606 209.792 133.036 209.485 132.095C209.355 131.696 209.224 131.073 208.921 131.168C208.762 131.218 208.819 131.582 208.847 131.937C208.928 133.005 209.384 134.707 209.384 134.707L209.152 134.843L208.19 131.788C208.147 131.64 208.078 131.415 207.922 131.403C207.784 131.392 207.647 131.467 207.647 131.81C207.647 132.495 208.385 135.328 208.385 135.328L208.201 135.455L207.08 132.978C207.003 132.791 206.725 132.808 206.678 133.004C206.64 133.159 206.651 133.38 206.778 133.694C207.126 134.55 207.473 135.921 207.473 135.921L207.386 136.02L206.778 134.764C206.669 134.563 206.403 134.434 206.325 134.649C206.216 134.948 207.169 137.526 207.169 137.697C207.169 137.869 207.821 140.202 208.515 140.374C209.21 140.545 209.254 142.158 209.254 142.158L211.99 141.658Z" fill="#FA9E89"/>
<path fill-rule="evenodd" clip-rule="evenodd" d="M252.256 183.842H265.165C265.917 183.842 266.526 183.222 266.526 182.456V180.597C266.526 179.831 265.917 179.211 265.165 179.211H252.256C251.504 179.211 250.895 179.831 250.895 180.597V182.456C250.895 183.222 251.504 183.842 252.256 183.842Z" fill="#FFDEDD"/>
<path fill-rule="evenodd" clip-rule="evenodd" d="M233.729 183.842H246.638C247.39 183.842 247.999 183.222 247.999 182.456V180.597C247.999 179.831 247.39 179.211 246.638 179.211H233.729C232.977 179.211 232.367 179.831 232.367 180.597V182.456C232.367 183.222 232.977 183.842 233.729 183.842Z" fill="#FFDEDD"/>
<path fill-rule="evenodd" clip-rule="evenodd" d="M214.046 183.842H226.955C227.707 183.842 228.316 183.222 228.316 182.456V180.597C228.316 179.831 227.707 179.211 226.955 179.211H214.046C213.295 179.211 212.685 179.831 212.685 180.597V182.456C212.685 183.222 213.295 183.842 214.046 183.842Z" fill="#FFDEDD"/>
<path fill-rule="evenodd" clip-rule="evenodd" d="M195.519 183.842H208.428C209.18 183.842 209.789 183.222 209.789 182.456V180.597C209.789 179.831 209.18 179.211 208.428 179.211H195.519C194.767 179.211 194.157 179.831 194.157 180.597V182.456C194.157 183.222 194.767 183.842 195.519 183.842Z" fill="#FFDEDD"/>
<path fill-rule="evenodd" clip-rule="evenodd" d="M196.791 194.842H265.052C265.866 194.842 266.526 194.217 266.526 193.446V191.606C266.526 190.835 265.866 190.211 265.052 190.211H196.791C195.976 190.211 195.316 190.835 195.316 191.606V193.446C195.316 194.217 195.976 194.842 196.791 194.842Z" fill="#F4F2F9"/>
<path fill-rule="evenodd" clip-rule="evenodd" d="M265.052 204.105C265.866 204.105 266.526 203.481 266.526 202.71V200.869C266.526 200.098 265.866 199.474 265.052 199.474H196.791C195.976 199.474 195.316 200.098 195.316 200.869V202.71C195.316 203.481 195.976 204.105 196.791 204.105H265.052Z" fill="#F4F2F9"/>
<path fill-rule="evenodd" clip-rule="evenodd" d="M196.791 213.368H265.052C265.866 213.368 266.526 212.744 266.526 211.973V210.132C266.526 209.362 265.866 208.737 265.052 208.737H196.791C195.976 208.737 195.316 209.362 195.316 210.132V211.973C195.316 212.744 195.976 213.368 196.791 213.368Z" fill="#F4F2F9"/>
<path fill-rule="evenodd" clip-rule="evenodd" d="M196.791 220.895H265.052C265.866 220.895 266.526 220.27 266.526 219.499V217.659C266.526 216.888 265.866 216.263 265.052 216.263H196.791C195.976 216.263 195.316 216.888 195.316 217.659V219.499C195.316 220.27 195.976 220.895 196.791 220.895Z" fill="#F4F2F9"/>
<path fill-rule="evenodd" clip-rule="evenodd" d="M240.022 125.554C240.022 125.554 236.375 120.432 229.492 123.398C222.609 126.363 230.08 131.216 230.08 131.216C230.08 131.216 230.227 129.329 231.316 128.789L231.228 130.467L235.081 131.141L235.699 129.523L236.096 131.366L238.037 132.084C238.037 132.084 236.449 137.656 235.522 138.465C235.522 138.465 235.125 139.768 235.257 140.037C235.39 140.307 241.258 141.79 242.008 140.442C242.758 139.094 241.214 137.207 240.728 135.949C240.243 134.691 241.611 128.011 240.022 125.554Z" fill="#FC516B"/>
<path fill-rule="evenodd" clip-rule="evenodd" d="M256.887 111.474H266.901C267.653 111.474 268.263 110.696 268.263 109.737C268.263 108.778 267.653 108 266.901 108H256.887C256.135 108 255.526 108.778 255.526 109.737C255.526 110.696 256.135 111.474 256.887 111.474Z" fill="#E4DCF1"/>
<path fill-rule="evenodd" clip-rule="evenodd" d="M241.632 153.158C241.632 153.158 240.089 164.323 238.327 168.789H229.028C229.028 168.789 227.495 164.078 234.845 162.537C239.957 161.465 241.632 153.158 241.632 153.158Z" fill="#44AD99"/>
<path fill-rule="evenodd" clip-rule="evenodd" d="M223.331 150.263C223.331 150.263 221.444 156.053 221.798 157.789C222.151 159.526 223.685 160.8 223.685 161.958C223.685 163.116 222.741 167.516 222.741 167.516L217.316 167.632C217.316 167.632 218.217 167.478 220.265 165.866C223.39 163.405 220.707 157.978 221.37 154.895C221.718 153.277 223.331 150.263 223.331 150.263Z" fill="#44AD99"/>
<path fill-rule="evenodd" clip-rule="evenodd" d="M217.315 159.394C217.315 159.394 217.192 164.248 216.207 163.501C215.221 162.754 215.837 155.536 214.975 153.047C214.113 150.558 211.526 142.593 211.526 142.593L213.743 142.158L217.315 159.394Z" fill="#44AD99"/>
<path fill-rule="evenodd" clip-rule="evenodd" d="M202.623 137.222C202.623 137.222 201.71 137.623 200.597 138.986C200.228 139.437 198.263 140.156 197.798 140.716C191.056 148.832 182.053 155.098 176.283 152.603C168.912 149.418 167.525 146.456 167.525 146.456L172.396 139.878C172.396 139.878 177.991 148.422 182.49 146.095C186.989 143.768 195.859 137.668 195.859 137.668L196.094 133.925C196.094 133.925 196.612 133.786 196.861 134.501C197.109 135.217 197.121 135.835 197.121 135.835L200.623 131.768C200.623 131.768 201.296 131.56 201.091 132.214C200.886 132.868 199.648 134.743 199.648 134.743C199.648 134.743 199.522 135.099 199.789 134.937C200.102 134.748 202.548 131.989 202.548 131.989C202.548 131.989 203.112 131.951 202.882 132.49C202.704 132.905 201.223 134.858 200.723 135.59C200.573 135.808 200.886 135.726 200.886 135.726L202.91 134.007C203.184 133.822 203.467 133.883 203.413 134.219C203.37 134.486 202.819 135.099 202.491 135.342C201.673 135.947 201.102 137.051 201.102 137.051L202.864 136.415C202.864 136.415 203.209 136.72 202.623 137.222Z" fill="#FA9E89"/>
<path fill-rule="evenodd" clip-rule="evenodd" d="M161.158 115.81L163.388 132.206L170.708 133.474C170.708 133.474 170.337 133.087 169.913 132.57C169.48 132.045 168.993 131.384 168.777 130.853C168.285 129.635 168.282 128.499 168.282 128.499C168.282 128.499 171.528 128.866 172.032 126.997C172.536 125.126 171.37 116.411 171.37 116.411C171.37 116.411 169.921 110.936 161.158 115.81Z" fill="#FA9E89"/>
<path fill-rule="evenodd" clip-rule="evenodd" d="M167.301 115.997C167.301 115.997 170.911 118.723 174.375 116.4C174.375 116.4 172.18 116.198 171.497 115.087C171.497 115.087 172.863 115.441 174.473 113.169C174.473 113.169 171.643 113.573 170.668 112.714C169.692 111.856 164.716 110.493 161.74 112.563C158.764 114.633 158.813 116.148 158.813 116.148C158.813 116.148 157.057 116.804 157.105 117.814C157.154 118.824 161.447 127.105 161.447 127.105L162.374 123.419C162.374 123.419 161.642 123.638 161.203 121.921C160.764 120.204 162.667 120.945 162.862 121.298C163.057 121.652 164.325 118.875 164.325 118.875L164.13 117.259C164.13 117.259 163.496 115.189 167.301 115.997Z" fill="#261F27"/>
<path fill-rule="evenodd" clip-rule="evenodd" d="M160.454 192.748C162.533 201.136 158.688 234.67 158.688 234.67L162.45 235.368C177.596 200.623 174.131 172.263 174.131 172.263L157.104 173.661C157.104 173.661 157.148 172.952 157.166 173.12C157.362 174.861 158.559 185.098 160.454 192.748Z" fill="white"/>
<path fill-rule="evenodd" clip-rule="evenodd" d="M179.26 226.149L183.632 229.541C183.632 229.541 185.355 229.334 185.686 230.13C186.018 230.925 186.051 231.825 186.051 231.825L181.479 231.895L173.893 228.884L175.086 225.526L179.26 226.149Z" fill="#6397D9"/>
<path fill-rule="evenodd" clip-rule="evenodd" d="M161.997 236.145C161.997 236.145 163.544 238.646 165.104 240.69C165.628 241.377 166.908 241.675 167.406 243.35C167.835 244.792 166.978 245.79 166.978 245.79C166.978 245.79 164.104 245.272 162.104 243.498C160.105 241.725 157.105 238.325 157.105 238.325L157.926 235.368L161.997 236.145Z" fill="#6397D9"/>
<path fill-rule="evenodd" clip-rule="evenodd" d="M277.526 194.263C277.526 196.501 285.042 198.316 294.315 198.316C303.588 198.316 311.104 196.501 311.104 194.263C311.104 192.025 303.588 190.211 294.315 190.211C285.042 190.211 277.526 192.025 277.526 194.263Z" fill="#224A7D"/>
<path fill-rule="evenodd" clip-rule="evenodd" d="M277.526 193.684C277.526 195.922 285.042 197.737 294.315 197.737C303.588 197.737 311.104 195.922 311.104 193.684C311.104 191.446 303.588 189.632 294.315 189.632C285.042 189.632 277.526 191.446 277.526 193.684Z" fill="#6397D9"/>
<path fill-rule="evenodd" clip-rule="evenodd" d="M289.684 191.368C289.684 192.328 292.795 193.105 296.632 193.105C300.469 193.105 303.579 192.328 303.579 191.368C303.579 190.409 300.469 189.632 296.632 189.632C292.795 189.632 289.684 190.409 289.684 191.368Z" fill="#162F44"/>
<path fill-rule="evenodd" clip-rule="evenodd" d="M311.104 193.105V195.413C311.104 195.413 311.064 196.84 308.21 197.737L308.892 195.237C308.892 195.237 310.897 194.371 311.104 193.105Z" fill="#162F44"/>
<path fill-rule="evenodd" clip-rule="evenodd" d="M277.53 193.105V195.47C277.53 195.47 277.304 196.653 280.421 197.737L279.465 194.978C279.465 194.978 277.808 194.238 277.53 193.105Z" fill="#8CC5F2"/>
<path fill-rule="evenodd" clip-rule="evenodd" d="M288.526 185.601L289.666 190.053C289.948 191.161 291.068 191.947 292.36 191.947H294.81C295.727 191.947 296.561 191.551 297.068 190.922C297.245 190.701 297.381 190.451 297.469 190.181L298.456 187.106L298.947 185.579L288.526 185.601Z" fill="#FC516B"/>
<path fill-rule="evenodd" clip-rule="evenodd" d="M288.526 185C288.526 185.32 290.859 185.579 293.737 185.579C296.615 185.579 298.947 185.32 298.947 185C298.947 184.68 296.615 184.421 293.737 184.421C290.859 184.421 288.526 184.68 288.526 185Z" fill="#9B293F"/>
<path fill-rule="evenodd" clip-rule="evenodd" d="M295.71 191.17C295.505 191.249 295.311 191.316 295.13 191.368L296.352 191.181C296.52 190.948 296.649 190.685 296.732 190.399L297.668 187.153C297.715 186.996 297.79 186.748 297.79 186.737C297.79 186.737 295.35 187.456 293.158 187.211C293.871 187.305 295.654 187.449 296.73 187.396C296.996 187.383 297.208 187.61 297.172 187.867C297.037 188.827 296.648 190.805 295.71 191.17Z" fill="#F995A9"/>
<path fill-rule="evenodd" clip-rule="evenodd" d="M293.158 183.785L293.551 185.572L293.837 185.579C293.837 185.579 293.854 183.785 295.965 182.684C298.077 181.585 297.775 177.474 297.775 177.474L297.773 177.479C297.723 177.585 296.911 179.273 296.298 179.384C295.664 179.5 295.271 180.513 295.271 180.513C295.271 180.513 294.969 180.947 294.607 180.86C294.245 180.773 293.883 181.729 293.883 181.729L293.763 182.743L293.158 183.785Z" fill="#51A595"/>
<path fill-rule="evenodd" clip-rule="evenodd" d="M296.048 187.308C296.048 187.308 296.453 173.74 289.331 169.947C289.331 169.947 287.305 170.73 289.679 173.981C292.053 177.232 290.142 179.58 291.184 180.423C292.226 181.265 293.732 181.807 293.5 182.891C293.268 183.975 293.558 185.058 294.021 185.179C294.484 185.299 295.526 185.939 295.689 187.316L296.048 187.308Z" fill="#4EC9B4"/>
<path fill-rule="evenodd" clip-rule="evenodd" d="M296.052 184.884L296.076 185.572L296.387 185.579C296.387 185.579 296.404 183.785 298.699 182.684C300.996 181.585 300.667 177.474 300.667 177.474L300.665 177.479L300.471 178.097C300.471 181.831 298.315 182.606 297.453 183.104C296.591 183.603 296.052 184.884 296.052 184.884Z" fill="#41877A"/>
<path fill-rule="evenodd" clip-rule="evenodd" d="M168.791 133.534C168.791 133.534 162.682 133.634 162.136 132.895L161.737 133.994C161.737 133.994 166.577 136.632 169.842 135.513L168.791 133.534Z" fill="#306299"/>
<path fill-rule="evenodd" clip-rule="evenodd" d="M177.367 141.53L170.079 149.684C170.079 149.684 160.34 140.952 160.582 138.215C160.824 135.479 164.392 129.812 169.865 135.018C175.19 140.082 177.367 141.53 177.367 141.53Z" fill="#8CC5F2"/>
<path fill-rule="evenodd" clip-rule="evenodd" d="M158.59 235.168L160.075 235.368C160.075 235.368 167.037 210.78 164.748 192.615C164.059 187.153 161.653 173.421 161.653 173.421L157.105 173.848C157.289 175.598 158.469 185.343 160.246 193.033C162.196 201.463 158.59 235.168 158.59 235.168Z" fill="#F4F2F9"/>
<path fill-rule="evenodd" clip-rule="evenodd" d="M166.514 132.639C167.376 132.827 167.845 132.886 168.104 132.895C167.7 132.336 167.245 131.632 167.044 131.066C166.585 129.769 166.581 128.559 166.581 128.559C166.581 128.559 164.861 128.107 164.684 128.32C164.508 128.534 164.684 132.24 166.514 132.639Z" fill="#E6846F"/>
<path fill-rule="evenodd" clip-rule="evenodd" d="M250.895 134.632C250.895 140.706 255.554 145.632 261.301 145.632C263.707 145.632 265.921 144.768 267.685 143.318V125.945C265.921 124.495 263.707 123.632 261.301 123.632C255.554 123.632 250.895 128.557 250.895 134.632Z" fill="#CEC3E2"/>
<path fill-rule="evenodd" clip-rule="evenodd" d="M250.895 134.921C250.895 140.836 255.233 145.632 260.583 145.632C262.823 145.632 264.885 144.791 266.526 143.379V126.463C264.885 125.051 262.823 124.211 260.583 124.211C255.233 124.211 250.895 129.006 250.895 134.921Z" fill="#C3B8D8"/>
<path fill-rule="evenodd" clip-rule="evenodd" d="M235.843 144.529C235.843 144.529 236.992 143.89 237.173 143.774C237.355 143.659 239.714 144.296 242.862 147.546C246.007 150.797 243.284 153.523 244.615 155.264C245.947 157.005 244.677 160.661 244.011 163.158C243.344 165.652 244.011 168.786 244.011 168.786L244.045 168.79L245.1 168.786C245.1 168.786 248.911 152.073 242.74 145.631C241.237 144.064 239.284 142.908 237.155 142.158L235.843 144.529Z" fill="#44AD99"/>
</g>
</svg>
