<svg width="768" height="478" viewBox="0 0 768 478" fill="none" xmlns="http://www.w3.org/2000/svg">
<mask id="mask0_8067_3201" style="mask-type:alpha" maskUnits="userSpaceOnUse" x="0" y="0" width="768" height="478">
<rect width="768" height="478" fill="#D9D9D9"/>
</mask>
<g mask="url(#mask0_8067_3201)">
<rect width="1000" height="352" rx="176" transform="matrix(-1 0 0 1 521 126)" fill="#5267DF"/>
<rect x="150" y="67" width="350" height="346" rx="8" fill="#E8EAF6"/>
<mask id="mask1_8067_3201" style="mask-type:luminance" maskUnits="userSpaceOnUse" x="150" y="67" width="350" height="346">
<rect x="150" y="67" width="350" height="346" rx="8" fill="white"/>
</mask>
<g mask="url(#mask1_8067_3201)">
<rect x="146.47" y="67.1971" width="547" height="59" fill="#242A45"/>
<circle opacity="0.244768" cx="188.47" cy="97.1971" r="16" fill="white"/>
<rect opacity="0.75" x="219.47" y="87.1971" width="120" height="6" rx="3" fill="white"/>
<rect opacity="0.25" x="219.47" y="101.197" width="64" height="6" rx="3" fill="white"/>
</g>
<g filter="url(#filter0_d_8067_3201)">
<rect x="177" y="205" width="200" height="255" rx="8" fill="white"/>
</g>
<rect opacity="0.5" x="245.683" y="240" width="101.317" height="6" rx="3" fill="#242A45"/>
<circle cx="216" cy="250" r="16" fill="#5267DF"/>
<rect opacity="0.25" x="245.683" y="254" width="54.0359" height="6" rx="3" fill="#242A45"/>
<circle cx="216" cy="306" r="16" fill="#5267DF"/>
<rect opacity="0.5" x="245.683" y="296" width="101.317" height="6" rx="3" fill="#242A45"/>
<rect opacity="0.25" x="245.683" y="310" width="54.0359" height="6" rx="3" fill="#242A45"/>
<circle cx="216" cy="362" r="16" fill="#5267DF"/>
<rect opacity="0.5" x="245.683" y="352" width="101.317" height="6" rx="3" fill="#242A45"/>
<rect opacity="0.25" x="245.683" y="366" width="54.0359" height="6" rx="3" fill="#242A45"/>
<circle cx="216" cy="418" r="16" fill="#5267DF"/>
<rect opacity="0.5" x="245.683" y="408" width="101.317" height="6" rx="3" fill="#242A45"/>
<rect opacity="0.25" x="245.683" y="422" width="54.0359" height="6" rx="3" fill="#242A45"/>
<g filter="url(#filter1_d_8067_3201)">
<g filter="url(#filter2_d_8067_3201)">
<rect x="401" y="205" width="200" height="255" rx="8" fill="white"/>
</g>
<rect opacity="0.5" x="469.683" y="240" width="101.317" height="6" rx="3" fill="#242A45"/>
<circle cx="440" cy="250" r="16" fill="#5267DF"/>
<rect opacity="0.25" x="469.683" y="254" width="54.0359" height="6" rx="3" fill="#242A45"/>
<circle cx="440" cy="306" r="16" fill="#FA5959"/>
<rect opacity="0.5" x="469.683" y="296" width="101.317" height="6" rx="3" fill="#242A45"/>
<rect opacity="0.25" x="469.683" y="310" width="54.0359" height="6" rx="3" fill="#242A45"/>
<circle cx="440" cy="362" r="16" fill="#5267DF"/>
<rect opacity="0.5" x="469.683" y="352" width="101.317" height="6" rx="3" fill="#242A45"/>
<rect opacity="0.25" x="469.683" y="366" width="54.0359" height="6" rx="3" fill="#242A45"/>
<circle cx="440" cy="418" r="16" fill="#5267DF"/>
<rect opacity="0.5" x="469.683" y="408" width="101.317" height="6" rx="3" fill="#242A45"/>
<rect opacity="0.25" x="469.683" y="422" width="54.0359" height="6" rx="3" fill="#242A45"/>
</g>
<rect x="177" y="152" width="237" height="34" rx="8" fill="white"/>
<circle cx="522" cy="236" r="67" fill="#495DCF" fill-opacity="0.20012" stroke="#5267DF" stroke-width="20"/>
<path d="M569 284L618 333" stroke="#5267DF" stroke-width="20" stroke-linecap="round" stroke-linejoin="round"/>
</g>
<defs>
<filter id="filter0_d_8067_3201" x="167" y="200" width="220" height="275" filterUnits="userSpaceOnUse" color-interpolation-filters="sRGB">
<feFlood flood-opacity="0" result="BackgroundImageFix"/>
<feColorMatrix in="SourceAlpha" type="matrix" values="0 0 0 0 0 0 0 0 0 0 0 0 0 0 0 0 0 0 127 0" result="hardAlpha"/>
<feOffset dy="5"/>
<feGaussianBlur stdDeviation="5"/>
<feColorMatrix type="matrix" values="0 0 0 0 0.285333 0 0 0 0 0.363695 0 0 0 0 0.811481 0 0 0 0.0830693 0"/>
<feBlend mode="normal" in2="BackgroundImageFix" result="effect1_dropShadow_8067_3201"/>
<feBlend mode="normal" in="SourceGraphic" in2="effect1_dropShadow_8067_3201" result="shape"/>
</filter>
<filter id="filter1_d_8067_3201" x="391" y="200" width="220" height="275" filterUnits="userSpaceOnUse" color-interpolation-filters="sRGB">
<feFlood flood-opacity="0" result="BackgroundImageFix"/>
<feColorMatrix in="SourceAlpha" type="matrix" values="0 0 0 0 0 0 0 0 0 0 0 0 0 0 0 0 0 0 127 0" result="hardAlpha"/>
<feOffset dy="5"/>
<feGaussianBlur stdDeviation="5"/>
<feColorMatrix type="matrix" values="0 0 0 0 0.285333 0 0 0 0 0.363695 0 0 0 0 0.811481 0 0 0 0.0830693 0"/>
<feBlend mode="normal" in2="BackgroundImageFix" result="effect1_dropShadow_8067_3201"/>
<feBlend mode="normal" in="SourceGraphic" in2="effect1_dropShadow_8067_3201" result="shape"/>
</filter>
<filter id="filter2_d_8067_3201" x="391" y="200" width="220" height="275" filterUnits="userSpaceOnUse" color-interpolation-filters="sRGB">
<feFlood flood-opacity="0" result="BackgroundImageFix"/>
<feColorMatrix in="SourceAlpha" type="matrix" values="0 0 0 0 0 0 0 0 0 0 0 0 0 0 0 0 0 0 127 0" result="hardAlpha"/>
<feOffset dy="5"/>
<feGaussianBlur stdDeviation="5"/>
<feColorMatrix type="matrix" values="0 0 0 0 0.285333 0 0 0 0 0.363695 0 0 0 0 0.811481 0 0 0 0.0830693 0"/>
<feBlend mode="normal" in2="BackgroundImageFix" result="effect1_dropShadow_8067_3201"/>
<feBlend mode="normal" in="SourceGraphic" in2="effect1_dropShadow_8067_3201" result="shape"/>
</filter>
</defs>
</svg>
